<?xml version="1.0" encoding="utf-8"?>
<!-- Generator: Adobe Illustrator 23.0.6, SVG Export Plug-In . SVG Version: 6.00 Build 0)  -->
<svg version="1.1" id="Layer_1" xmlns="http://www.w3.org/2000/svg" xmlns:xlink="http://www.w3.org/1999/xlink" x="0px" y="0px"
	 viewBox="0 0 17 51" style="enable-background:new 0 0 17 51;" xml:space="preserve">
<style type="text/css">
	.st0{clip-path:url(#SVGID_2_);}
	.st1{fill:#FFC107;}
	.st2{fill:#FF5A00;}
	.st3{fill:#DDDDDD;}
</style>
<g>
	<defs>
		<rect id="SVGID_1_" width="17" height="51"/>
	</defs>
	<clipPath id="SVGID_2_">
		<use xlink:href="#SVGID_1_"  style="overflow:visible;"/>
	</clipPath>
	<g id="Web_1920_1" class="st0">
		<g id="rating">
			<path id="star" class="st1" d="M15.6,40.4L11,39.7l-2.1-4.4c-0.1-0.2-0.4-0.3-0.7-0.2c-0.1,0-0.1,0.1-0.2,0.2L6,39.7l-4.6,0.7
				c-0.3,0-0.4,0.3-0.4,0.5C1,41,1,41.1,1.1,41.2l3.4,3.4l-0.8,4.9c0,0.3,0.1,0.5,0.4,0.5c0.1,0,0.2,0,0.3-0.1l4.1-2.3l4.1,2.3
				c0.2,0.1,0.5,0,0.6-0.2c0.1-0.1,0.1-0.2,0.1-0.3l-0.8-4.9l3.4-3.4c0.2-0.2,0.2-0.5,0-0.7C15.8,40.4,15.7,40.4,15.6,40.4
				L15.6,40.4z"/>
			<path id="star-2" class="st2" d="M15.6,23.4L11,22.7l-2.1-4.4c-0.1-0.2-0.4-0.3-0.7-0.2c-0.1,0-0.1,0.1-0.2,0.2L6,22.7l-4.6,0.7
				c-0.3,0-0.4,0.3-0.4,0.5C1,24,1,24.1,1.1,24.2l3.4,3.4l-0.8,4.9c0,0.3,0.1,0.5,0.4,0.5c0.1,0,0.2,0,0.3-0.1l4.1-2.3l4.1,2.3
				c0.2,0.1,0.5,0,0.6-0.2c0.1-0.1,0.1-0.2,0.1-0.3l-0.8-4.9l3.4-3.4c0.2-0.2,0.2-0.5,0-0.7C15.8,23.4,15.7,23.4,15.6,23.4
				L15.6,23.4z"/>
			<path id="star-3" class="st3" d="M15.6,6.4L11,5.7L8.9,1.2C8.8,1,8.5,0.9,8.2,1.1c-0.1,0-0.1,0.1-0.2,0.2L6,5.7L1.4,6.4
				C1.1,6.4,0.9,6.6,1,6.9C1,7,1,7.1,1.1,7.2l3.4,3.4l-0.8,4.9c0,0.3,0.1,0.5,0.4,0.5c0.1,0,0.2,0,0.3-0.1l4.1-2.3l4.1,2.3
				c0.2,0.1,0.5,0,0.6-0.2c0.1-0.1,0.1-0.2,0.1-0.3l-0.8-4.9l3.4-3.4c0.2-0.2,0.2-0.5,0-0.7C15.8,6.4,15.7,6.4,15.6,6.4L15.6,6.4z"
				/>
		</g>
	</g>
</g>
</svg>
