<svg xmlns="http://www.w3.org/2000/svg" xmlns:xlink="http://www.w3.org/1999/xlink" width="382" height="256.06" viewBox="0 0 382 256.06">
  <metadata><?xpacket begin="﻿" id="W5M0MpCehiHzreSzNTczkc9d"?>
<x:xmpmeta xmlns:x="adobe:ns:meta/" x:xmptk="Adobe XMP Core 5.6-c138 79.159824, 2016/09/14-01:09:01        ">
   <rdf:RDF xmlns:rdf="http://www.w3.org/1999/02/22-rdf-syntax-ns#">
      <rdf:Description rdf:about=""/>
   </rdf:RDF>
</x:xmpmeta>
                                                                                                    
                                                                                                    
                                                                                                    
                                                                                                    
                                                                                                    
                                                                                                    
                                                                                                    
                                                                                                    
                                                                                                    
                                                                                                    
                                                                                                    
                                                                                                    
                                                                                                    
                                                                                                    
                                                                                                    
                                                                                                    
                                                                                                    
                                                                                                    
                                                                                                    
                                                                                                    
                           
<?xpacket end="w"?></metadata>
<defs>
    <style>
      .cls-1 {
        fill: #fff;
        fill-rule: evenodd;
        opacity: 0.02;
        filter: url(#filter);
      }
    </style>
    <filter id="filter" x="9" y="2044.97" width="382" height="256.06" filterUnits="userSpaceOnUse">
      <feFlood result="flood" flood-color="#595a5e"/>
      <feComposite result="composite" operator="in" in2="SourceGraphic"/>
      <feBlend result="blend" in2="SourceGraphic"/>
    </filter>
  </defs>
  <path id="Shape_1146_copy_5" data-name="Shape 1146 copy 5" class="cls-1" d="M230.082,2044.97c0.3,0.9.585,1.79,0.884,2.68,0.689,2.07,0,3.19-2.15,3.04-2.851-.2-5.853-0.2-8.482-1.14-3.237-1.16-5.418.45-8.132,1.67,1.114,2.66,2.173,5.21,3.251,7.75,1.336,3.15.938,4.11-2.279,5.48-1.974.84-3.939,1.7-5.9,2.56a1.633,1.633,0,0,0-.367.32c-0.222,1.32,2.21,3.05-1.095,3.95,2.6,2.01,4.884,3.78,7.177,5.55-2.76,2.32-3.842,2.41-6.592.65-1.539-.99-3.077-1.98-4.638-2.93-2.047-1.25-3.875-.52-4.445,1.79-0.418,1.7-.774,3.41-1.124,5.13-0.749,3.67-1.207,4.11-5.469,4.96,0.31-2.88.612-5.68,0.94-8.71-0.794.1-1.428,0.18-2.126,0.27-0.43-.83-0.858-1.67-1.425-2.78-2.389,1.01-4.694,2.01-7.022,2.96-2.717,1.1-3.621.73-4.819-2-1.706-3.9-3.362-7.83-5.039-11.74,0.146-.15.292-0.31,0.438-0.46,0.735,0.3,1.5.54,2.2,0.91,2.215,1.15,4.347.89,5.892-.76a4.646,4.646,0,0,0,.334-5.92c-1.308-1.83-3.391-2.32-5.74-1.52a27.253,27.253,0,0,1-3.92.89c-0.975.17-2.305,0.64-2.435-.91a6.187,6.187,0,0,1,.792-3.17c0.266-.51,1.194-0.69,1.843-0.98q8.474-3.78,16.955-7.54h42.5ZM50.065,2301.02c-0.3-1.86-.561-3.72-0.911-5.57a1.862,1.862,0,0,0-.7-1.28c-5.05-1.91-7.486-5.64-7.561-10.9-7.564-.93-11.142-3.45-12.19-8.48a10.746,10.746,0,0,1,5.04-11.68c4.581-2.68,9.013-1.72,14.508,3.15,4.544-5.31,8.584-6.63,13.359-4.36,4.622,2.2,6.238,6.35,4.907,12.98,3.447,0.5,6.77,1.58,8.24,5.04a13.011,13.011,0,0,1,.95,5.97c-0.382,4.48-3.661,6.8-9.729,7.66-0.383,2.59-.746,5.03-1.108,7.47h-14.8Zm5.676-14.91a15.8,15.8,0,0,1-3.64-2.32c-1.722-1.82-1.442-4.39.186-6.76a4.771,4.771,0,0,0,.344-1.76,3.744,3.744,0,0,0-1.68.76,11.356,11.356,0,0,0-1.67,3.85,7.019,7.019,0,0,0,9.764,7.19,3.6,3.6,0,0,0,.952-1.14,5.191,5.191,0,0,0-1.528-.42A18.668,18.668,0,0,0,55.741,2286.11Zm1.712-7.47c0.607-.87,1.27-1.41,1.188-1.79a3.913,3.913,0,0,0-1.228-1.38c-0.411.39-1.166,0.81-1.152,1.19C56.279,2277.2,56.865,2277.73,57.452,2278.64ZM391,2107.55h-3.691c-0.161,3.57-1.027,6.78-3.848,8.77a14.345,14.345,0,0,1-6.011,2.53,10.269,10.269,0,0,1-10.922-6.69c-1.9-4.87-.341-9.21,4.949-13.54-2.567-2.14-4.743-4.66-4.593-8.16a12.976,12.976,0,0,1,1.632-5.83c2.506-4.23,6.763-5.2,13.234-3.36,0.968-5.1,3.972-8.1,9.25-8.59v16.72q-5.364,2.94-10.737,5.88c2.615,4.2,6.2,4.87,10.737,2.24v10.03ZM9,2189.24a6.5,6.5,0,0,0,5.573,4.12c0.581-1.32,1.231-2.73,1.827-4.16,0.682-1.63,1.745-2.09,3.412-1.37,8.392,3.61,16.809,7.17,25.187,10.81a3.317,3.317,0,0,1,1.744,1.73c0.361,1.17.054,2.33-1.632,2.02-1.241-.23-2.465-0.56-3.688-0.88a3.455,3.455,0,0,0-4.142,1.52,3.271,3.271,0,0,0,.289,4.19,3.424,3.424,0,0,0,4.306.92c0.614-.26,1.2-0.57,1.8-0.86,0.163,0.13.327,0.27,0.49,0.4-1.439,3.3-2.772,6.65-4.414,9.83-0.3.58-1.969,0.88-2.827,0.64a40.733,40.733,0,0,1-5.254-2.11c-1.072.89-1.952,1.62-3.041,2.52,0.151,1.66.335,3.7,0.534,5.9-2.288-.46-3.943-1.16-4.081-3.7a21.607,21.607,0,0,0-.753-3.73c-0.5-2.1-1.827-2.68-3.646-1.6a21,21,0,0,0-3.012,1.93c-1.817,1.55-3.523,1.46-5.5-.21,1.71-1.31,3.376-2.57,4.8-3.66-0.165-1.29-.3-2.38-0.5-3.93-0.914-.41-2.266-1.03-3.627-1.63-3.631-1.59-3.693-1.74-2.186-5.29,0.708-1.67,1.393-3.35,2.2-5.28-1.379-.51-2.618-0.97-3.857-1.43v-6.69Zm339.025,111.78c0.457-3.46.915-6.92,1.481-11.2a22.876,22.876,0,0,1,1.783,2.28,4.506,4.506,0,0,0,5.144,2.47,4.6,4.6,0,0,0,3.491-4.54,4.786,4.786,0,0,0-4.088-4.32,16.5,16.5,0,0,1-3.145-1.02c-0.989-.44-2.573-0.49-2.052-2.3,0.5-1.74,1.674-2.35,3.461-2.07,3.85,0.6,7.711,1.12,11.566,1.68,7.395,1.07,14.794,2.13,22.182,3.25a24.03,24.03,0,0,1,3.152.96v14.81H348.025Zm41.542-256.05c-0.354,2.44-.723,4.88-1.059,7.32-0.41,2.98-1.34,3.7-4.279,3.28-2.27-.33-4.544-0.63-6.952-0.97-0.272,1.02-.512,1.92-0.806,3.02-0.507.02-1.08,0.04-2.017,0.09,1.072,2.76,2.064,5.31,3.063,7.88-3.4.53-4.349,0.06-5.785-2.84-0.776-1.57-1.533-3.15-2.329-4.71-1.049-2.06-2.958-2.35-4.57-.69a27.239,27.239,0,0,0-3.232,3.5c-1.909,2.84-4.372,2.51-7.307,1.59,1.755-2.26,3.407-4.38,5.246-6.74-2.149-.54-2.14-2-1.417-3.85-2.212-.34-4.14-0.62-6.064-0.94-4.657-.77-5.024-1.31-4.034-5.94h41.542ZM391,2246.56q-6.325,1.605-12.652,3.2c-5.172,1.29-7.525-1.05-6.179-6.22q2.282-8.745,4.657-17.47c1.444-5.3,4.6-6.08,8.613-2.2,1.8,1.73,3.7,3.35,5.561,5.02v17.67ZM9,2072.68c6.562,0.87,9.2,4.08,9.191,11.5,3.769-.33,7.43.24,9.341,3.91a10.4,10.4,0,0,1,1.086,5.88c-0.728,5.11-5.076,7.51-11.188,6.47-1.621,3.67-4.275,6.31-8.43,7.11v-10.51a6.466,6.466,0,0,0,2.175-6.93c-0.427-1.41-1.074-1.62-2.175-.71v-16.72Zm150.412,228.34c-3.845-6.36-1.945-12.02,1.257-15.38a11.978,11.978,0,0,1,19.63,12.98c-0.324.78-.557,1.6-0.832,2.4H159.412Zm9.765-3.73a3.232,3.232,0,0,0,3.363-3.22,3.284,3.284,0,1,0-6.566-.15A3.224,3.224,0,0,0,169.177,2297.29Zm-89.507,3.73c1.3-4.83,2.616-9.66,3.9-14.5,1.359-5.11,4.667-6.04,8.463-2.3,4.366,4.29,8.727,8.6,12.979,13.01a20.493,20.493,0,0,1,2.349,3.79H79.67Zm42.02,0c-0.011-.7,0-1.41-0.038-2.11-0.4-6.71,5.493-11.17,11.84-8.94,0.371,0.13.741,0.27,1.282,0.46,1.54-3.64,4.076-5.84,8.245-5.12a6.2,6.2,0,0,1,5.2,4.94c0.877,3.66-.739,6.29-3.8,8.03,0.894,0.95,1.732,1.85,2.57,2.74H121.69ZM391,2281.44c-6.564,2.63-12.244,1.16-15.466-4a11.5,11.5,0,0,1,12.99-17.15c0.816,0.24,1.65.41,2.476,0.61v20.54Zm-2.512-10.24a3.216,3.216,0,1,0-6.428.21,3.194,3.194,0,0,0,3.314,3.06A3.24,3.24,0,0,0,388.488,2271.2ZM9,2123.79c0.672-.24,1.658-0.28,1.966-0.75,1.785-2.77,3.974-4.06,6.646-3.66a6.164,6.164,0,0,1,5.33,4.77c0.691,2.78-.309,4.98-3.191,7.04-0.127.09-.23,0.22-0.5,0.47,0.512,0.37.986,0.69,1.445,1.04a6.624,6.624,0,0,1-3.729,11.97,6.727,6.727,0,0,1-6.31-4.27c-0.284-.67.058-2.36-1.655-1.32v-15.29Zm138.475-78.82c0.379,1.97,1.243,4,1.029,5.9a6.477,6.477,0,0,1-6.248,5.54,6.88,6.88,0,0,1-7.232-4.64c-0.2-.51-0.377-1.03-0.538-1.47-2.439.15-4.837,0.3-7.424,0.46-0.04.36-.081,0.9-0.155,1.42a5.574,5.574,0,0,1-5.769,4.89,5.644,5.644,0,0,1-.88-11.2,9.3,9.3,0,0,0,1.909-.9h25.308ZM391,2139.08c-1.8.09-3.593,0.19-5.482,0.28-1.41,4.6-3.208,6.31-6.316,5.84a5.2,5.2,0,0,1-4.457-5.12c-0.03-3.05,1.812-4.83,5.873-5.52a24.014,24.014,0,0,1-.418-3.42,7.988,7.988,0,0,1,8.2-7.87c0.867,0.01,1.735.03,2.6,0.05v15.76Zm-283.635-94.11a5.065,5.065,0,0,1-4.147,4.35c-6.2,1.66-12.384,3.41-18.612,4.96-4.626,1.16-6.894-1.2-5.822-5.85,0.267-1.16.589-2.31,0.886-3.46h27.7Zm203.892,256.05c-0.081-.45-0.137-0.9-0.247-1.35-1.036-4.2,1.258-6.74,6.365-6.85,0.132-.7.218-1.45,0.42-2.18a4.607,4.607,0,0,1,5.215-3.45,4.376,4.376,0,0,1,3.926,4.58,2.83,2.83,0,0,0,1.492,3.01c2.285,1.42,2.751,3.72,2.407,6.24H311.257ZM9,2294.81c2.524,0.86,4.787,1.23,7.26-.72,2.336-1.84,5.211-3.02,7.921-4.34,2.011-.98,3.089-0.19,2.84,2.07-0.339,3.08-.863,6.14-1.308,9.2H9v-6.21Zm204.37,6.21a39.335,39.335,0,0,0,2.759-3.52c1.8-2.89,3.383-5.92,5.218-8.78,1.027-1.61,2.5-1.5,3.276.25,1.758,3.98,3.333,8.03,4.982,12.05H213.37ZM391,2195.45c-2.628.49-5.239,1.15-7.889,1.43-2.281.24-3.081-.96-2.228-3.1q1.841-4.62,3.914-9.15c1.012-2.21,2.4-2.2,3.769-.1q1.221,1.875,2.434,3.75v7.17ZM9,2229.37c2.557,2.58,5.162,5.12,7.659,7.75,3.037,3.22,2.194,6.35-2.022,7.73-1.866.61-3.757,1.14-5.637,1.71v-17.19Zm0,32c6.787,3.58,8.559,14.56,0,20.07v-20.07Zm179.54,39.65c4.937-2.16,9.857-4.36,14.818-6.47a2.809,2.809,0,0,1,4.077,1.68c0.691,1.6,1.409,3.2,2.115,4.79H188.54Zm-9.55-256.05c-4.835,5.68-12.126,6.6-17.374,2.16a13.632,13.632,0,0,1-1.726-2.16h19.1Zm-153.277,0c-0.3,1.96-.566,3.93-0.927,5.87-0.265,1.43-1.441,2.39-2.552,1.54-2.964-2.28-5.658-4.91-8.459-7.41H25.713Zm305.123,0c-2.4,5.63-7.593,6.18-11.486,1.07-2.694,1.21-5.393,1.59-7.614-1.07h19.1Zm-266.445,0c-1.485,2.97-4.142,4.09-7.189,4.01-2.838-.07-5.388-1.1-6.659-4.01H64.39Zm192.91,0q-0.246,3.24-.491,6.47c-0.314.01-.628,0.01-0.942,0.01v-6.48H257.3Zm24.836,177.57c-1.956-6.24-.671-10.73,3.727-13.34s8.866-1.58,13.671,3.22c2.113-2.35,4.6-4.32,7.917-3.94a12.486,12.486,0,0,1,5.682,2.03c4.063,2.93,4.324,7.05,1.309,13.43,6.091,3.35,7.915,8.16,4.9,12.92-2.822,4.47-8.081,4.89-13.6,1-4.445,3.28-9.118,3.56-14.055.36-1.766,2.97-4.111,5.35-7.537,5.72a15.3,15.3,0,0,1-6.716-.78c-4.16-1.53-6.572-6.04-6.2-10.57C271.667,2227.38,274.831,2224.44,282.136,2222.54Zm9.988,1.34a6.139,6.139,0,0,0,5.684,7.32,7.079,7.079,0,0,0,7.412-5.43,4.206,4.206,0,0,0-.5-1.73,4.711,4.711,0,0,0-1.1,1.25c-1.082,2.85-2.616,4.11-5.17,4.1-2.587-.01-4.233-1.32-5.252-4.05A6.623,6.623,0,0,0,292.124,2223.88Zm8.695-4.71c-0.629.76-1.33,1.25-1.269,1.6a4.218,4.218,0,0,0,1.118,1.48,4.31,4.31,0,0,0,1.279-1.36C302.046,2220.54,301.381,2219.98,300.819,2219.17Zm-3.128,1.94c-0.72-.65-1.186-1.38-1.54-1.33a4.232,4.232,0,0,0-1.529,1.08,4.29,4.29,0,0,0,1.33,1.31C296.289,2222.28,296.87,2221.64,297.691,2221.11Zm-134.089,30c-6.976-1.57-10.016-5.44-8.529-10.86,1.442-5.25,6.233-7.19,12.654-5.01,3.289-4.36,7.571-6.26,13.283-4.48,1.015-3.64,2.712-6.86,6.354-8.11a15.48,15.48,0,0,1,6.716-.72,10.072,10.072,0,0,1,8.239,8.48c0.784,5.47-1.459,9.21-7.532,12.32,3.741,4.84,4.373,9.82-.094,14.51-3.309,3.47-7.416,3.5-13.52.44-1.248,2.91-3.1,5.46-6.324,6.14a11.543,11.543,0,0,1-5.81-.2C164.1,2261.99,162.537,2258.07,163.6,2251.11Zm18.294-4.69c0-2.68-1.853-5.05-3.994-5.1-2.22-.05-4.21,2.45-4.149,5.21,0.06,2.73,1.948,4.98,4.142,4.93C180.136,2251.41,181.891,2249.2,181.9,2246.42Zm-1.586-6.62c0.548-.93,1.122-1.49,1.1-2.02-0.016-.4-0.782-0.78-1.214-1.17a4.247,4.247,0,0,0-1.146,1.49C178.984,2238.47,179.672,2238.98,180.31,2239.8Zm-3.126-1.78c-0.718-.62-1.22-1.36-1.566-1.29a4.247,4.247,0,0,0-1.475,1.17,4.314,4.314,0,0,0,1.385,1.28C175.868,2239.27,176.425,2238.58,177.184,2238.02Zm21.234-77.16c5.9-3.09,10.585-2.53,13.567,1.5,3.114,4.21,2.389,8.68-2.328,13.66a8.313,8.313,0,0,1,4.321,7.39,7.969,7.969,0,0,1-2.636,6.16c-3.979,3.67-9.426,2.71-12.855-1.74-2.943,0-5.535.45-7.877-.12s-4.412-2.17-6.834-3.44c-5.191,3.92-9.473,4.31-14.262.97a10.963,10.963,0,0,1-3.8-11.71c1.607-5.14,5.492-7.32,13.1-7.34,0.989-8.07,2.994-11.13,7.933-12.13C191.522,2153.1,195.245,2155.24,198.418,2160.86Zm2.646,12.75c-4.549-1.21-8.945-2.39-13.337-3.56-1.049,3.81,1.033,7.67,4.376,8.62C196.132,2179.81,199.573,2178,201.064,2173.61Zm-72.519,90.61c2.128,1.87,3.817,3.49,6.865,2.92,2.529-.47,5.233-0.08,7.852.06,1.934,0.11,2.586,1.32,1.46,2.88q-3.91,5.415-8.093,10.63c-1.341,1.67-2.786,1.43-3.7-.51-0.945-2.01-2.141-4.05-2.438-6.18-0.432-3.12-2.647-4.23-4.98-5.82-1.593,2.08-3.114,4.09-4.667,6.08-1.685,2.15-2.528,2.26-4.759.62-1.6-1.18-3.169-2.4-4.759-3.59-0.116-.09-0.284-0.1-0.064-0.03-1.326.67-2.412,1.21-4.095,2.05-0.233,1.61-.584,4.03-0.939,6.45-2.854-.82-3.491-1.66-3.333-4.33,0.1-1.67.209-3.34,0.233-5.01,0.036-2.45-1.3-3.4-3.686-2.68a20.373,20.373,0,0,0-3.842,1.26c-2.774,1.52-4.554.13-6.536-1.95,2.5-1.06,4.8-2.04,7.3-3.1-0.48-.59-0.812-1-1.224-1.5,0.447-.68.913-1.39,1.527-2.32-1.862-1.43-3.646-2.85-5.475-4.21-1.563-1.15-1.918-2.49-.721-4.08,2.342-3.1,4.721-6.17,7.522-9.82,0.173,1.25.328,1.92,0.346,2.58a4.18,4.18,0,0,0,3.36,4.33,3.9,3.9,0,0,0,4.409-2.09,4.244,4.244,0,0,0-1.19-5.34,10.647,10.647,0,0,1-2.213-2.44,7.936,7.936,0,0,1-.454-2.61c1.076-.12,2.3-0.61,3.194-0.26a15.715,15.715,0,0,1,3.48,2.47q10.905,8.31,21.8,16.65c2.378,1.82,2.489,2.65.671,5.11C130.509,2261.64,129.593,2262.83,128.545,2264.22Zm205.921,0.87a29.518,29.518,0,0,1-3.3-1.28c-3.288-1.77-6.541-3.61-9.8-5.44-3.429-1.91-3.8-3.69-1.363-6.85q17.52-22.635,35.066-45.27c0.925-1.19,1.811-2.42,2.8-3.56,1.588-1.82,3.5-2.01,5.182-.33q4.726,4.71,9.22,9.66a4.647,4.647,0,0,1,.211,6.15c-3.541,4.7-7.162,9.34-10.777,13.99a5.012,5.012,0,0,1-5.977,1.75,5.781,5.781,0,0,0-6.982,2.1c-1.865,2.34-2.237,4.78-.535,7.47a5.4,5.4,0,0,1-.43,6.66c-3.223,4.14-6.363,8.35-9.706,12.39C337.155,2263.65,335.638,2264.29,334.466,2265.09Zm20.719-35.62a25.883,25.883,0,0,0,4.263-2.91,70.247,70.247,0,0,0,4.412-5.61c3.326-4.27,3.109-6.33-1.043-9.81-2.156-1.8-4.234-1.69-5.983.49-2.438,3.02-4.792,6.12-7.155,9.2-1.12,1.46-1.531,3.3-.242,4.59C351,2226.98,353.067,2228.02,355.185,2229.47Zm-11.472,15.92c0.03-2.65-1.855-4.11-3.607-5.57a3.6,3.6,0,0,0-5.473.51c-2.595,3.2-5.148,6.44-7.489,9.83a4.777,4.777,0,0,0-.479,3.55c0.655,2.41,5.331,4.55,7.729,3.82C336.64,2256.84,343.673,2247.68,343.713,2245.39ZM110.235,2079.61c-4.69-3.9-5.436-8.08-2.16-11.67,3.149-3.45,7.459-3,11.838,1.35,4.281-2.09,8.245-1.48,11.182,1.38,3-1.07,5.542-2.42,8.213-2.78,1.674-.23,3.749.68,5.294,1.64a8.872,8.872,0,0,1,3.54,9.88c-1.15,4.27-4.3,6.26-10.927,6.8,0.739,4.88-.552,8.96-5.6,10.63-4.917,1.62-8.431-.66-10.729-5-5.094,2.99-9.127,2.76-11.908-.55C106.075,2087.82,106.465,2083.86,110.235,2079.61Zm16.326,1.5c-0.024-2.09-1.284-3.43-3.17-3.36-2.286.08-4.246,2.38-4.209,4.94,0.029,2.06,1.353,3.5,3.155,3.43C124.541,2086.03,126.589,2083.6,126.561,2081.11Zm147.715,206.16c1.57,0.34,3.14.67,5.293,1.13a23.368,23.368,0,0,1-6.181-11.54c-2.153-11.13,5.451-21.82,17.037-23.81a20.368,20.368,0,0,1,23.195,16.97c1.124,8.01-1.444,14.66-7.881,19.5-6.522,4.9-13.66,5.35-21.161,2.12a89.536,89.536,0,0,0-8.566-2.78c-0.667-.22-1.328-0.45-1.992-0.67C274.106,2287.88,274.191,2287.58,274.276,2287.27Zm22.1-21.92c-0.168,3.94.972,4.74,3.976,3.46,1.824-.78,3.659-1.55,5.406-2.48,1.781-.95,1.979-2.57.438-3.83a60.546,60.546,0,0,0-5.591-4.04c-1.811-1.16-3.271-.48-3.629,1.65C296.644,2262.07,296.514,2264.05,296.372,2265.35Zm-2.746-5.34c0.051-2.49-1.146-3.44-3.387-2.56-1.984.77-3.948,1.62-5.858,2.56-2.174,1.07-2.337,2.68-.424,4.21,1.668,1.33,3.4,2.59,5.18,3.76,1.932,1.27,3.366.68,3.777-1.61C293.289,2264.27,293.4,2262.13,293.626,2260.01Zm2.319,30.42c3.177-1.54,5.91-2.65,8.4-4.16,1.388-.84.853-2.32-0.274-3.22a66.836,66.836,0,0,0-5.8-4.17c-1.507-.96-2.938-0.52-3.287,1.29a41.911,41.911,0,0,0-.8,7.56C294.176,2288.58,295.265,2289.44,295.945,2290.43Zm-18.553-15.5c-0.091,2.41,1.213,3.4,3.483,2.52,1.994-.78,3.966-1.65,5.874-2.62,2.061-1.05,2.216-2.65.4-4.11-1.672-1.34-3.427-2.58-5.22-3.76-2-1.31-3.364-.75-3.765,1.58C277.8,2270.65,277.642,2272.8,277.392,2274.93Zm32.94-2.78c0.07-2.45-1.179-3.44-3.441-2.57a60.859,60.859,0,0,0-6.073,2.74c-1.848.97-2.014,2.47-.407,3.79a61.184,61.184,0,0,0,5.583,4.06c1.848,1.2,3.2.58,3.587-1.64C309.951,2276.43,310.091,2274.28,310.332,2272.15Zm-19.041,9.99c0.315-4.46-.807-5.27-4.186-3.77-1.449.64-2.911,1.26-4.338,1.95-2.85,1.38-3.038,2.79-.6,4.69q2.25,1.755,4.617,3.36c2.179,1.47,3.637.84,4.008-1.73C291.038,2284.92,291.178,2283.18,291.291,2282.14Zm2.236-6.06c0.332-.02.663-0.03,1-0.04,0.51-.9,1.481-1.84,1.393-2.67-0.079-.75-1.462-2.03-2.011-1.91a3.175,3.175,0,0,0-2.1,2.14C291.73,2274.36,292.9,2275.25,293.527,2276.08Zm-187.769-68.36c1.585-1.29,2.819-2.3,4.054-3.3,0.19,0.18.381,0.37,0.571,0.55a9.085,9.085,0,0,1-.894,1.26c-2.689,2.69-5.486,5.27-8.092,8.03a20.421,20.421,0,0,1-33.821-21.84,20.425,20.425,0,0,1,39.142,9.56C106.587,2203.75,106.138,2205.5,105.758,2207.72Zm-30.387-7.63c0.037-.15.073-0.29,0.11-0.44,1.109-.07,2.22-0.12,3.326-0.22,2.629-.23,3.323-1.54,1.977-3.87-1.029-1.79-2.131-3.54-3.309-5.23-1.336-1.92-2.874-1.88-4.109.07a20.434,20.434,0,0,0-1.674,3.15c-0.686,1.68-2.825,3.43-1.273,5.13C71.407,2199.75,73.676,2199.66,75.371,2200.09Zm10.479-15.98c-0.049.23-.1,0.47-0.147,0.7-1.11,0-2.226-.07-3.329.02-2.476.19-3.23,1.54-2,3.71,1.054,1.86,2.213,3.68,3.441,5.43,1.327,1.9,2.863,1.82,4.1-.17a17.31,17.31,0,0,0,1.663-3.16c0.6-1.64,1.887-4,1.253-4.88C90,2184.61,87.585,2184.61,85.85,2184.11Zm10.041,14.77c1.346-.1,2.707-0.1,4.035-0.31,2.049-.33,2.711-1.59,1.7-3.43a62.279,62.279,0,0,0-3.672-5.85c-1.162-1.64-2.774-1.57-3.869.11-0.735,1.13-1.294,2.37-1.924,3.56C89.381,2198.23,89.86,2198.99,95.891,2198.88Zm1.035,3.18c-1.27.06-2.552,0.02-3.806,0.19-2.144.3-2.884,1.7-1.82,3.58a59.141,59.141,0,0,0,3.723,5.81c1.208,1.66,2.7,1.53,3.817-.22,0.682-1.07,1.247-2.21,1.833-3.34C103.523,2202.59,103.093,2201.91,96.926,2202.06Zm-10.477,14.9c1.111,0,2.23.08,3.332-.02,2.578-.24,3.316-1.67,2.062-3.91a14.947,14.947,0,0,0-1.533-2.4c-1.234-1.46-2.43-3.81-3.892-4.02-2.392-.33-2.766,2.64-3.685,4.36C79.712,2216.62,80.114,2217.2,86.45,2216.96Zm-10.385-14.11c0,0.06,0,.13,0,0.19-1.112,0-2.233-.09-3.336.01-2.437.23-3.181,1.65-1.938,3.78a63.832,63.832,0,0,0,3.6,5.62c1.187,1.62,2.646,1.62,3.665-.03a52.565,52.565,0,0,0,3.437-6.53c0.716-1.64.007-2.84-1.857-3.02C78.453,2202.76,77.254,2202.85,76.065,2202.85Zm12.609-1.52c0-.34,0-0.67,0-1.01-0.871-.55-1.768-1.56-2.6-1.51-0.745.04-2.07,1.36-1.979,1.93a3.143,3.143,0,0,0,2.017,2.2C86.878,2203.04,87.811,2201.91,88.673,2201.33Zm290.863-37.27c0.621-1.29.979-2.06,1.353-2.82,0.33-.67.677-1.33,1.016-1.99,0.209,0.06.417,0.12,0.626,0.19a5.265,5.265,0,0,1-.115,1.3c-1.339,3.81-2.781,7.59-4.059,11.42a20.444,20.444,0,0,1-39.8-7.61c0.47-9.85,8.469-18.35,18.046-19.18,10.7-.92,19.982,5.63,22.252,15.72C379.044,2161.9,379.23,2162.72,379.536,2164.06Zm-4.267,1.71c0-.37.065-1.41-0.014-2.44-0.154-2.01-1.469-2.93-3.254-2.12a62.606,62.606,0,0,0-6.321,3.33,2.054,2.054,0,0,0-.126,3.7,62.031,62.031,0,0,0,6.03,3.82c1.806,1,3.053.25,3.328-1.82C375.079,2168.98,375.12,2167.7,375.269,2165.77Zm-14.945,10.78h-0.136c-0.054.95-.164,1.9-0.15,2.85,0.041,2.73,1.406,3.59,3.861,2.4,1.856-.9,3.707-1.83,5.471-2.9,1.994-1.2,2.037-2.77.12-4.11-1.756-1.22-3.587-2.36-5.454-3.41-2.129-1.2-3.5-.41-3.7,2.07C360.255,2174.48,360.324,2175.51,360.324,2176.55Zm-3.633-.34h0.154c0.052-.87.147-1.74,0.147-2.62,0-2.88-1.389-3.75-3.975-2.47-1.851.91-3.706,1.84-5.471,2.9s-1.9,2.63-.252,3.83a55.423,55.423,0,0,0,6.045,3.81c1.768,0.98,3.086.2,3.327-1.87A31.408,31.408,0,0,0,356.691,2176.21Zm4.2-19.37c0,0.38,0,1.02,0,1.65-0.008,3.09,1.285,3.96,4,2.63,1.85-.91,3.693-1.86,5.452-2.93,1.734-1.06,1.823-2.66.19-3.83a64.02,64.02,0,0,0-5.826-3.71c-1.875-1.06-3.2-.31-3.485,1.89C361.045,2153.88,361.008,2155.23,360.89,2156.84Zm-3.327-1.29h0.182c0-.95.024-1.91,0-2.86-0.075-2.56-1.223-3.37-3.506-2.33a58.238,58.238,0,0,0-5.71,2.95c-2.006,1.19-2.067,2.75-.156,4.12A59.831,59.831,0,0,0,354,2161c1.873,1.05,3.277.29,3.535-1.87A30.528,30.528,0,0,0,357.563,2155.55Zm-14.915,10.47c0,0.64-.035,1.68.007,2.71,0.092,2.22,1.309,3.15,3.268,2.28a53.565,53.565,0,0,0,6.3-3.35c1.612-1,1.639-2.55.073-3.68a57.726,57.726,0,0,0-6.026-3.83c-1.669-.92-2.974-0.22-3.308,1.68C342.743,2163.07,342.762,2164.36,342.648,2166.02Zm16.266-3.09c-1.027,1.52-2.1,2.42-2.074,3.29,0.018,0.72,1.446,2.06,2.031,1.95a3.247,3.247,0,0,0,2.093-2.17C361.087,2165.32,359.958,2164.41,358.914,2162.93Zm-103.447-14.26c-0.836-2.07-1.428-3.53-2.02-5,0.21-.11.42-0.23,0.63-0.34a12.679,12.679,0,0,1,.961,1.27c1.844,3.23,3.546,6.55,5.515,9.7,6.1,9.76,2.832,23.1-7.09,28.62a20.44,20.44,0,0,1-24.122-32.66,20.609,20.609,0,0,1,24.13-2.75C253.946,2147.78,254.413,2148.06,255.467,2148.67Zm-13.379,30.23c-0.16,2.61.853,3.64,2.835,3.17a57.92,57.92,0,0,0,6.794-2.07c1.769-.65,2.179-2.23.9-3.59a57.04,57.04,0,0,0-5.373-5.03c-1.373-1.12-2.8-.82-3.388.95C243.088,2174.65,242.574,2177.05,242.088,2178.9Zm-15.063-13.82c0.09,2.37,1.083,3.34,2.773,2.95a47.258,47.258,0,0,0,6.96-2.22c1.59-.64,2.149-2.05.867-3.42a58.992,58.992,0,0,0-5.532-5.18,1.881,1.881,0,0,0-3.246.87C228.023,2160.53,227.526,2163.1,227.025,2165.08Zm13.349,7.24c0.177-2.6-.837-3.62-2.841-3.15a56.1,56.1,0,0,0-6.6,1.96c-1.964.72-2.293,2.36-.837,3.88,1.588,1.66,3.251,3.25,4.965,4.78a2.144,2.144,0,0,0,3.613-.88C239.4,2176.57,239.907,2174.17,240.374,2172.32Zm19.891-6.75c-0.223-2.06-1.208-2.84-2.954-2.37-2.222.6-4.445,1.23-6.6,2.01-1.931.71-2.342,2.24-.959,3.72a58.651,58.651,0,0,0,5.214,4.89c1.4,1.17,2.852.85,3.423-.87C259.207,2170.47,259.693,2167.88,260.265,2165.57Zm-10.921-3.46c2.263-.74,4.968-1.44,7.5-2.53,1.563-.68,1.524-2.2.39-3.38a65.976,65.976,0,0,0-5.213-4.89c-1.47-1.22-2.989-.78-3.538,1.04a65.543,65.543,0,0,0-1.689,7.18C246.521,2161.04,247.356,2161.93,249.344,2162.11Zm-5.776-13.56c-3.329,1.11-6.078,1.89-8.673,3.02-0.505.22-.9,2.26-0.5,2.72a46.609,46.609,0,0,0,5.813,5.58,1.823,1.823,0,0,0,3.068-.95,47.85,47.85,0,0,0,1.7-7.63C245.08,2150.48,244.1,2149.52,243.568,2148.55Zm3.209,16.84c-1.523-.93-2.454-1.94-3.319-1.89-0.717.05-2.018,1.51-1.882,2.05a3.309,3.309,0,0,0,2.207,2.08C244.469,2167.73,245.343,2166.53,246.777,2165.39Zm61.109-51.97c-1.043-.63-2.6-1.13-3.472-2.19-2.411-2.95-4.6-6.09-6.749-9.24-1.586-2.32-.842-4.18,2.1-5.7q17.382-8.925,34.771-17.85,7.1-3.645,14.208-7.29c3.6-1.84,5.184-1.21,6.465,2.54,1.026,3.01,2.1,6,3.062,9.03,1.013,3.17.191,5.18-2.759,6.72-4.294,2.25-8.644,4.38-12.925,6.65a5.332,5.332,0,0,1-6.577-.77c-2.2-1.9-3.989-2.07-6.553-.64-2.229,1.25-3.683,2.95-3.291,5.78a4.982,4.982,0,0,1-2.659,5.41c-4.338,2.33-8.742,4.54-13.138,6.77A19.153,19.153,0,0,1,307.886,2113.42Zm14.251-14.06c0.084-5.23-3.106-7.95-6.493-6.39a77.1,77.1,0,0,0-9.275,4.87,4.938,4.938,0,0,0-1.877,3.71,5.556,5.556,0,0,0,8.018,4.67,49.648,49.648,0,0,0,6.951-3.65A13.048,13.048,0,0,0,322.137,2099.36Zm30.371-16.04c-0.371-5.26-3.767-7.38-8.148-5.13q-3.5,1.8-6.991,3.61c-2.779,1.45-3.649,3.23-2.7,5.49,1.432,3.41,4.319,5.07,7.128,3.84a55.325,55.325,0,0,0,8.02-4.18C351,2086.18,351.628,2084.55,352.508,2083.32ZM33.222,2068.59c0.828-3.7,1.636-7.84,2.716-11.91,0.568-2.14,2.481-2.71,5.13-1.71,6.322,2.36,12.616,4.8,18.92,7.22q16.353,6.27,32.7,12.54c3.906,1.5,4.476,3.06,2.446,6.69-1.512,2.7-3.022,5.41-4.6,8.08-1.786,3.03-3.8,3.73-7.009,2.51-4.455-1.69-8.892-3.44-13.351-5.12-2.6-.98-4.031-2.73-3.888-5.59,0.137-2.75-1.513-4.23-3.8-5.17-2.3-.94-4.549-0.93-6.333,1.1-2.015,2.3-4.358,2.61-7.1,1.53-4.136-1.64-8.3-3.21-12.458-4.8C34.329,2073.1,33.226,2071.44,33.222,2068.59Zm42.391,4.05c-2.7.22-3.984,1.26-4.586,3.26-0.941,3.12-.527,5.64,1.741,6.73a65.773,65.773,0,0,0,9.519,3.63c2.358,0.7,4.179-.76,5.61-3.7,0.892-1.83,1.15-3.97-.656-4.9C83.336,2075.62,79.152,2074.13,75.613,2072.64Zm-25.325,1.63c3.807,0.01,6.185-2.23,6.736-5.29,0.381-2.11-.735-3.63-3.458-4.69-2.593-1.01-5.18-2.03-7.783-3.01-2.72-1.03-4.515-.61-5.681,1.28-1.59,2.57-1.6,6.15.575,7.4A91.013,91.013,0,0,0,50.288,2074.27Zm22.742,39.31a19.587,19.587,0,1,1-19.675-19.74A19.587,19.587,0,0,1,73.03,2113.58Zm-26.218,2.96c-1.974.33-4.263,0.6-6.494,1.11-1.848.43-2.336,1.88-1.192,3.46a63.17,63.17,0,0,0,4.188,5.17c1.377,1.52,2.843,1.26,3.716-.66a59.827,59.827,0,0,0,2.39-6.21C50,2117.62,49.058,2116.55,46.812,2116.54Zm7.461-18.59c-2.224.37-4.512,0.63-6.741,1.15-1.98.46-2.441,1.89-1.208,3.59a61.234,61.234,0,0,0,4.014,5c1.394,1.55,2.881,1.36,3.752-.53a52.22,52.22,0,0,0,2.459-6.42C57.112,2098.93,56.038,2098.12,54.273,2097.95Zm-0.935,31.74c1.493-.25,3.636-0.5,5.717-1,1.929-.46,2.424-1.78,1.284-3.39a55.209,55.209,0,0,0-4.182-5.2c-1.417-1.56-2.851-1.29-3.722.64-0.849,1.88-1.6,3.82-2.254,5.77C49.422,2128.78,50.294,2129.82,53.338,2129.69Zm6.377-18.38c2.017-.34,4.234-0.6,6.395-1.1,1.887-.44,2.482-1.9,1.392-3.43a54.414,54.414,0,0,0-4.375-5.34,1.966,1.966,0,0,0-3.484.54,52.729,52.729,0,0,0-2.453,6.45C56.63,2110.27,57.609,2111.33,59.716,2111.31Zm-19.131,3.01c1.723-.28,3.775-0.55,5.8-0.97s2.614-1.85,1.434-3.52a59.633,59.633,0,0,0-4.015-5.02c-1.48-1.67-2.951-1.46-3.871.58a56.558,56.558,0,0,0-2.242,5.77C36.95,2113.41,37.86,2114.46,40.584,2114.32Zm25.926-.92c-2.04.35-4.411,0.62-6.7,1.21-1.739.44-2.25,1.77-1.148,3.29a61.662,61.662,0,0,0,4.322,5.35c1.283,1.4,2.777,1.13,3.586-.65a57.856,57.856,0,0,0,2.48-6.41C69.572,2114.56,68.565,2113.44,66.511,2113.4Zm-10.218.51c-1.386-.99-2.245-2.07-2.978-1.99a2.825,2.825,0,0,0-2,1.97,2.888,2.888,0,0,0,1.988,2.03C54.025,2116.01,54.9,2114.91,56.293,2113.91ZM45.138,2237.09c-1.938-9.2,6.1-15.12,14.243-11.1,1.658-3.59,4.325-5.67,8.453-5.01a7.109,7.109,0,0,1,5.787,5.93c0.6,3.17-.89,5.8-4.813,8.21,3.876,2.59,5.71,5.97,3.721,10.5a7.327,7.327,0,0,1-7.412,4.18c-4.265-.42-6.3-3.21-7.017-6.88H50.391c-1.47,5.04-3.4,6.83-7.059,6.43a5.908,5.908,0,0,1-5.219-5.6C37.945,2240.04,39.77,2238.31,45.138,2237.09Zm18.171,2.46a5.6,5.6,0,0,0-10.9-.58c1.956-.82,3.762-2.24,5.47-2.13C59.678,2236.95,61.387,2238.53,63.309,2239.55Zm189.113-137.96c5.688-.07,8.338,1.36,9.639,5.04a7.625,7.625,0,0,1-2.391,8.38c-2.879,2.26-6.1,2.14-10.2-.44a27.243,27.243,0,0,1-2.515,3.02,23.805,23.805,0,0,1-3.124,2.11c2.5,4.44,2.293,7.53-.65,9.65a6,6,0,0,1-8-.85c-2.448-2.75-2.079-5.9,1.087-9.26-7.267-7.5-6.248-14.09,2.906-17.86-0.984-3.87-.65-7.42,3.285-9.61a6.761,6.761,0,0,1,7.829.6C253.4,2094.74,253.566,2097.95,252.422,2101.59Zm-1.184,7.13a5.57,5.57,0,0,0-8.358,6.95c0.881-1.97,1.234-4.24,2.557-5.31C246.823,2109.23,249.14,2109.25,251.238,2108.72Zm-79.358,94.76c0-1.11,0-2.22,0-3.34,0.01-4.01,1.261-5.09,5.291-4.51,5.268,0.75,10.533,1.53,15.8,2.29,10.613,1.54,21.23,3.05,31.836,4.63,3.385,0.51,4.323,2.07,3.375,5.31-0.78,2.67-1.551,5.34-2.417,7.98a4.542,4.542,0,0,1-5.062,3.44c-4.575-.53-9.138-1.2-13.679-1.98a4.709,4.709,0,0,1-3.88-4.06c-0.455-2.41-2.111-3.25-4.2-3.54s-4.14-.28-5.383,2a5.405,5.405,0,0,1-6.026,2.84c-3.774-.54-7.558-1.02-11.325-1.61a4.827,4.827,0,0,1-4.29-4.91c-0.054-1.51-.01-3.03-0.01-4.54H171.88Zm44.858,11.11a5.243,5.243,0,0,0,5.551-4.93c0.174-2.38-1.3-3.85-4.336-4.3-2.195-.32-4.387-0.68-6.589-0.95-2.868-.34-4.567.69-5.1,3.02a4.968,4.968,0,0,0,3.384,6.01C212.106,2214.02,214.646,2214.27,216.738,2214.59ZM187,2210.3c3.17,0.01,5.306-1.98,5.5-4.82,0.181-2.64-1.149-3.97-4.413-4.44-2.119-.3-4.229-0.66-6.355-0.9-3.015-.35-4.677.62-5.167,2.88-0.606,2.8.831,5.58,3.474,6.19C182.422,2209.77,184.886,2209.98,187,2210.3Zm-51.247-37.47a5.231,5.231,0,0,1-3.312,5.5c-3.307,1.53-6.577,3.15-9.892,4.66-3.144,1.44-5.194.84-7.161-2.03q-2.225-3.24-4.378-6.54c-1.688-2.59-1.223-4.42,1.616-5.77q22.251-10.605,44.546-21.12c2.666-1.26,4.381-.43,5.3,2.41,0.857,2.64,1.678,5.3,2.428,7.98,0.81,2.89-.113,5-2.786,6.31-3.706,1.82-7.448,3.56-11.187,5.31-2.23,1.04-4.4.9-6.149-.89-1.875-1.94-3.855-1.59-5.87-.55C137.032,2169.06,135.333,2170.27,135.749,2172.83Zm13.286-6.87c3.086-1.69,6.365-3.11,9.187-5.16,1.818-1.33,1.539-4.48.029-6.31s-3.336-1.82-5.342-.8c-2.053,1.03-4.161,1.96-6.241,2.94-1.957.93-3.315,2.26-2.811,4.64A6.437,6.437,0,0,0,149.035,2165.96Zm-16.791,5.36c0.084-4.38-2.874-6.36-6.363-4.79-2.169.98-4.329,1.98-6.457,3.05-3.453,1.72-3.8,5.25-.727,7.62,3.492,2.7,6.318-.21,9.252-1.33C130.154,2175.03,132.325,2173.74,132.244,2171.32ZM96.5,2151.85c4.514,2.75,6.1,5.41,5.4,8.81a7.356,7.356,0,0,1-6.421,5.86c-3.407.46-6.006-1.36-8.163-5.83-3.475,1.93-6.914,2.37-9.774-1.05-2.124-2.54-1.96-5.28.392-9.17-3.24-2.3-5.131-5.18-2.92-9.23,1.525-2.78,4.14-3.5,8.186-2.58,1.148-1.55,1.993-3.2,3.3-4.32,1.768-1.52,4.55-1.28,6.456.09a5.461,5.461,0,0,1,1.95,6.37,2.754,2.754,0,0,0,.559,3.33C97.425,2146.35,97.538,2149.02,96.5,2151.85Zm231.979,48.03c-7.079,5.9-15.215,1.52-15.522-6.47-3.773.09-6.864-1.1-8.108-5.07a6.782,6.782,0,0,1,2.31-7.07c2.372-1.91,4.848-1.92,8.9.08,0.366-4.31,2.394-7.22,6.89-7.71a6.818,6.818,0,0,1,6.733,4.04c1.593,3.66.373,6.65-2.367,8.97,1.19,2.06,2.313,4,3.619,6.26,3.669-1.27,7.271-1.03,8.631,3.96a5.381,5.381,0,0,1-3.1,6.09C333.59,2204.34,331.314,2203.46,328.48,2199.88Zm-52.971-132.21a17.806,17.806,0,1,1,17.708,17.81A17.8,17.8,0,0,1,275.509,2067.67Zm29.084,0.05c-1.46.23-3.359,0.43-5.2,0.86-1.984.46-2.423,1.7-1.237,3.33,1.117,1.53,2.309,3.02,3.571,4.44,1.411,1.58,2.744,1.34,3.626-.65a50.669,50.669,0,0,0,1.963-5.09C307.978,2068.52,307.2,2067.61,304.593,2067.72Zm-23.09.77c1.584-.27,3.554-0.51,5.475-0.96,1.835-.43,2.307-1.64,1.228-3.17a47.968,47.968,0,0,0-3.726-4.61c-1.35-1.48-2.663-1.25-3.5.6a52.654,52.654,0,0,0-2.045,5.31C278.32,2067.55,279.126,2068.52,281.5,2068.49Zm8.241,4.42c0.122-1.61-.554-2.55-2.024-2.42a45.341,45.341,0,0,0-6.351.99c-1.711.41-2.128,1.68-1.106,3.1a50.173,50.173,0,0,0,3.934,4.79c1.11,1.21,2.426,1.04,3.124-.38C288.3,2077,288.983,2074.86,289.744,2072.91Zm6.422-16.64c-0.022-2.29-1.027-2.78-2.381-2.62-1.891.21-3.78,0.5-5.643,0.89-1.924.4-2.467,1.71-1.321,3.34a26.731,26.731,0,0,0,3.8,4.57c0.548,0.49,2.507.51,2.712,0.14A66.907,66.907,0,0,0,296.166,2056.27Zm3.144,9.39c1.554-.27,3.605-0.49,5.587-0.99,1.648-.41,2.171-1.61,1.123-3.06a48.718,48.718,0,0,0-3.864-4.8c-1.274-1.36-2.537-1.11-3.34.64a49.878,49.878,0,0,0-2.107,5.53C296.147,2064.76,296.931,2065.66,299.31,2065.66Zm-6.718,16.84c1.716-.29,3.763-0.52,5.753-1,1.8-.43,2.243-1.68,1.164-3.2a51.422,51.422,0,0,0-3.711-4.61c-1.236-1.37-2.579-1.19-3.36.48a43.735,43.735,0,0,0-2.214,5.74C289.728,2081.54,290.508,2082.48,292.592,2082.5Zm3.41-14.3c-1.359-.99-2.153-2.01-2.813-1.93a2.875,2.875,0,0,0-1.861,1.88,2.523,2.523,0,0,0,1.685,1.71C293.752,2069.91,294.558,2069.05,296,2068.2Zm-98.954,57.35a17.8,17.8,0,1,1-17.633-17.9A17.783,17.783,0,0,1,197.048,2125.55Zm-11.723-2.13c1.524-.27,3.491-0.51,5.409-0.96,1.834-.43,2.29-1.63,1.206-3.18a47.653,47.653,0,0,0-3.554-4.44c-1.521-1.69-2.827-1.46-3.75.67a51.975,51.975,0,0,0-1.918,5.1C182.107,2122.56,182.851,2123.45,185.325,2123.42Zm-5.689-12.04c-1.8.31-3.935,0.54-5.987,1.08-1.519.4-1.968,1.64-1.016,2.96a52.24,52.24,0,0,0,3.871,4.8c1.247,1.36,2.63,1.14,3.382-.52a47.716,47.716,0,0,0,2.095-5.54C182.54,2112.35,181.765,2111.4,179.636,2111.38Zm-3.905,19.33c0.033-2.06-.957-2.66-2.435-2.49a56.142,56.142,0,0,0-5.62.89c-1.993.42-2.533,1.66-1.391,3.29a55.533,55.533,0,0,0,3.721,4.61c1.017,1.16,2.363,1.38,3.131-.08A66.253,66.253,0,0,0,175.731,2130.71Zm3.038,9.51c1.48-.25,3.445-0.48,5.363-0.92,2.086-.48,2.472-1.66,1.167-3.46a53.31,53.31,0,0,0-3.412-4.25c-1.428-1.6-2.726-1.4-3.62.59a46.492,46.492,0,0,0-2.028,5.3C175.663,2139.32,176.387,2140.19,178.769,2140.22Zm12.313-14.86c-1.808.31-3.863,0.56-5.869,1.02-1.725.39-2.183,1.64-1.208,3.06a39.781,39.781,0,0,0,3.874,4.83c1.151,1.21,2.489,1.16,3.246-.5a47.734,47.734,0,0,0,2.226-5.77C193.859,2126.35,193.088,2125.4,191.082,2125.36Zm-23.8.92c1.7-.29,3.753-0.53,5.747-1,1.645-.39,2.264-1.57,1.226-3.03a46.29,46.29,0,0,0-4.053-4.95c-1.249-1.31-2.489-.87-3.185.67a55.03,55.03,0,0,0-2.129,5.54C164.31,2125.27,165.1,2126.24,167.28,2126.28Zm14.671-.31c-1.359-1.01-2.144-2.05-2.81-1.98a2.844,2.844,0,0,0-1.855,1.88,2.494,2.494,0,0,0,1.678,1.73C179.692,2127.67,180.5,2126.82,181.951,2125.97Zm97.358,29.84c0.982,0.82,1.361,1.41,1.8,1.46,1.174,0.13,2.637.45,3.484-.09a3.238,3.238,0,0,0,.905-3.03c-0.393-.93-1.745-1.56-2.807-2.05-0.653-.3-1.583.07-2.311-0.14a6.363,6.363,0,0,1-1.678-1.14c0.571-.55,1.074-1.46,1.725-1.58,3.043-.57,6.125-0.93,9.2-1.35,3.857-.52,7.711-1.08,11.577-1.54,3.115-.37,3.389-0.09,3.755,3.01,0.082,0.7.21,1.39,0.326,2.14,2.189,0.28,3.942.09,5.17-2.01a11.562,11.562,0,0,1,2.682-2.69c1.713-1.43,2.908-.97,3.281,1.28,0.351,2.11.642,4.24,0.858,6.38,0.225,2.22-.942,3.14-3.046,2.42a8.66,8.66,0,0,1-2.8-1.28c-1.739-1.44-3.5-.98-5.592-0.46,0.2,1.78.327,3.5,0.6,5.2s-0.365,2.55-2.077,2.73c-1.41.15-2.809,0.41-4.038,0.59-0.418,1.08-.762,1.96-1.165,3,0.829,1.12,1.766,2.38,2.771,3.74-1.676,1.02-2.792.57-3.969-.74-3.941-4.36-4.04-4.36-6.594.74-0.839,1.68-1.867,2.44-3.954,1.9,0.572-1.47,1.132-2.92,1.636-4.22-1.208-3.32-3.716-2.35-6.1-2.22-0.818.04-2.285-.76-2.432-1.41C279.917,2161.84,279.729,2159.14,279.309,2155.81Zm-159.447-24.1c-2.1-.5-3.921-1.04-5.548.56a1.806,1.806,0,0,1-.828.46c-1.419.32-2.847,0.6-4.272,0.89a27.55,27.55,0,0,1-.626-4.24,22.97,22.97,0,0,1,.593-4.96c0.4-1.76,1.565-2.15,2.988-1.04a12.617,12.617,0,0,1,2.917,2.79c1.255,1.89,2.883,2.27,5.051,1.88,0.087-.35.212-0.71,0.269-1.08,0.647-4.21-.213-4.68,5.063-4.07,6.236,0.72,12.479,1.37,18.717,2.07a4.148,4.148,0,0,1,1.829.45,2.214,2.214,0,0,1,.808,1.54,1.625,1.625,0,0,1-1.1.93,8.485,8.485,0,0,1-2.363.18c-1.744-.08-3.147.62-3.339,2.32a4.035,4.035,0,0,0,1.274,3c1.252,1.09,2.671.59,3.8-.58,0.245-.26.542-0.46,1.288-1.09-0.374,3.38-.59,6.19-1.077,8.96a2.523,2.523,0,0,1-1.938,1.21,36.044,36.044,0,0,1-4.607-.33c-0.647.88-1.212,1.66-1.873,2.56,0.536,1.32,1.129,2.78,1.733,4.26-2.251.81-3.312-.35-4.117-2.11-2.149-4.7-3.143-4.55-6.19-.58-1.1,1.44-2.245,2.2-4.225,1.17,0.466-.67.937-1.36,1.417-2.03,0.456-.65.922-1.29,1.281-1.78-0.419-1.04-.774-1.91-1.2-2.95-1.258-.17-2.66-0.45-4.072-0.53-1.77-.1-2.362-0.99-2.164-2.66C119.556,2135.21,119.691,2133.49,119.862,2131.71Zm117.889,121.65a15.5,15.5,0,0,1,.3-1.71c1.629-6.14,3.231-12.28,4.939-18.39,1.284-4.6,4.482-5.49,7.919-2.16,4.619,4.47,9.162,9.03,13.658,13.63,3.119,3.19,2.343,6.53-1.923,7.77-6.468,1.88-13,3.56-19.534,5.19C239.931,2258.48,237.782,2256.77,237.751,2253.36ZM325.6,2121.63c6.518,1.16,13.65,2.3,20.715,3.76,3.227,0.67,4.378,3.86,2.312,6.49-4.359,5.55-8.881,10.99-13.579,16.26-2.527,2.83-5.739,2.17-7.152-1.4-2.563-6.49-4.936-13.06-7.183-19.67C319.641,2123.92,321.675,2121.54,325.6,2121.63ZM204.608,2284.02a12.009,12.009,0,1,1-12.006-12A12.092,12.092,0,0,1,204.608,2284.02Zm-8.721-.05a3.289,3.289,0,1,0-6.577.09A3.289,3.289,0,1,0,195.887,2283.97Zm165.294-4.62a11.53,11.53,0,1,1,11.455-11.61A11.626,11.626,0,0,1,361.181,2279.35Zm-0.03-14.73a3.183,3.183,0,0,0-3.211,3.11,3.148,3.148,0,0,0,3.251,3.28A3.2,3.2,0,0,0,361.151,2264.62ZM220.813,2097.41a19.558,19.558,0,0,1-3.056-1c-3.24-1.77-6.42.08-7.051,3.69a8.54,8.54,0,0,1-2.861,4.59,29.46,29.46,0,0,1-6.014,3.36,4.728,4.728,0,0,1-6-1.29c-1.024-1.22-2.014-2.47-2.91-3.78-1.456-2.13-1.157-4.02,1.068-5.26q15.623-8.67,31.342-17.17c2.006-1.09,3.724-.39,4.768,1.62a3.3,3.3,0,0,1,.212.43c2.044,5.88,4.2,8.28-4.176,12.2C224.3,2095.67,222.483,2096.59,220.813,2097.41Zm-12.659,1.53a3.227,3.227,0,0,0-4.653-3.17,28.171,28.171,0,0,0-5.191,2.88c-1.316.91-2.261,2.49-1.2,3.89,0.779,1.03,2.665,2.22,3.612,1.93a27.011,27.011,0,0,0,6.518-3.57C207.842,2100.5,207.963,2099.38,208.154,2098.94Zm11.529-4.9c3.315-.93,6.155-1.75,7.586-4.45a4.381,4.381,0,0,0-.228-3.87c-0.555-.76-2.492-1.1-3.545-0.77a15.567,15.567,0,0,0-5.371,2.93,4.333,4.333,0,0,0-1.185,3.67C217.238,2092.61,218.819,2093.31,219.683,2094.04Zm-116.591,23.07c-1,.9-1.854,2.27-2.992,2.58q-8.291,2.2-16.717,3.91a3.173,3.173,0,0,1-3.881-4.17q2.293-8.265,5.053-16.41c0.923-2.72,3.438-3.33,5.47-1.28,4.035,4.06,7.876,8.31,11.734,12.54A12.665,12.665,0,0,1,103.092,2117.11Zm142.068,166c0.89,3.06.462,5.57-2.262,7.24a5.363,5.363,0,0,1-6.214-.6c-2.369-2.17-2.222-4.73-.839-7.5-2.673-.95-4.517-2.52-4.291-5.53,0.242-3.21,2.612-4.25,5.263-4.82,0.046-3.64,1.116-5.42,3.568-6.05,2.281-.58,4.257.57,5.864,3.48a5.667,5.667,0,0,0,.856-0.2c2.6-.93,4.868-0.13,5.779,2.06,0.947,2.27.032,4.3-2.463,5.64a2.307,2.307,0,0,0-1.227,1.17C248.991,2280.54,247.49,2282,245.16,2283.11Zm-110.2-29.51a10.541,10.541,0,1,1,10.453-10.52A10.575,10.575,0,0,1,134.962,2253.6Zm0.2-13.43a2.839,2.839,0,0,0-3.188,2.7,2.9,2.9,0,0,0,2.8,3.15,3.019,3.019,0,0,0,3.006-3A2.726,2.726,0,0,0,135.166,2240.17Zm-7.625-10.67a10.52,10.52,0,0,1-21.04-.01A10.52,10.52,0,1,1,127.541,2229.5Zm-10.3,2.89a2.706,2.706,0,0,0,2.687-2.86,2.923,2.923,0,0,0-2.952-3,3.026,3.026,0,0,0-2.865,3.14A2.882,2.882,0,0,0,117.239,2232.39ZM258.86,2194.4a12.784,12.784,0,1,1-12.968,12.48A12.76,12.76,0,0,1,258.86,2194.4Zm-0.841,24.19c2.116-1.04,3.839-1.88,5.562-2.72q-2.18-2.475-4.361-4.97a58.677,58.677,0,0,0-2.8,5.47C256.271,2216.75,257.285,2217.6,258.019,2218.59Zm-1.129-8.02c-1.155-.64-1.927-1.45-2.5-1.32-1.867.41-5.052-.49-5.176,1.84-0.085,1.61,2.533,3.36,3.943,5.04C254.287,2214.46,255.412,2212.78,256.89,2210.57Zm5.7-4.17c2.181-1,3.931-1.8,5.682-2.6q-2.148-2.535-4.3-5.05a58.713,58.713,0,0,0-2.86,5.39C260.954,2204.54,261.911,2205.4,262.594,2206.4Zm-2.821-9.38c-3.557-.11-6.664,1.18-6.13,2.05a22.5,22.5,0,0,0,4.19,4.9c0.562,0.5,2.867-3.17,2.856-5.21A3.923,3.923,0,0,0,259.773,2197.02Zm7.562,9.44c-2.145,1.01-3.872,1.83-5.6,2.64l4.31,5.04a59.591,59.591,0,0,0,2.8-5.43C269.01,2208.33,268.054,2207.49,267.335,2206.46Zm-17.674,1.78c1.976-1.47,5.442.24,5.476-2.64,0.019-1.6-2.59-3.23-4.015-4.85-0.982,1.88-2.052,3.72-2.862,5.67C248.123,2206.75,249.1,2207.55,249.661,2208.24Zm8.742,1.17c0.725-.84,1.551-1.4,1.477-1.79a4.472,4.472,0,0,0-1.324-1.59c-0.451.46-1.195,0.87-1.266,1.38C257.221,2207.9,257.853,2208.49,258.4,2209.41Zm-109.427-.76c-2.5,1.37-4.91,1.64-7.029-.49a4.721,4.721,0,0,1-1.009-5.69c1.213-2.6,3.486-3.24,6.246-2.98,0.09-.59.168-1.12,0.251-1.65a4.7,4.7,0,0,1,4.991-4.09,4.538,4.538,0,0,1,4.239,4.84,2.554,2.554,0,0,0,1.452,2.81,5.405,5.405,0,0,1,2.5,5.75,5.628,5.628,0,0,1-4.363,4.83,5.707,5.707,0,0,1-6.038-1.82C149.8,2209.69,149.424,2209.2,148.976,2208.65Zm7.766-115.79c-3.3-2.75-4.009-5.23-2.3-7.6,1.732-2.4,4.289-2.49,7.8-.22,2.579-1.63,5.26-2.12,7.877-.03a5.545,5.545,0,0,1,1.939,6.2c-0.877,3.04-3.181,4.41-6.41,4.43-0.25,2.95-1.149,5.43-4.353,6.06a4.8,4.8,0,0,1-5.177-2.14C154.562,2097.27,155.056,2095.05,156.742,2092.86Zm54.211,158.18c-0.692-.83-1.338-1.52-1.886-2.28a4.621,4.621,0,0,1,.429-5.9,4.779,4.779,0,0,1,6.089-.67,3.488,3.488,0,0,0,2.594.44,6.069,6.069,0,0,1,6.67.92,5.669,5.669,0,0,1,1.709,6.28c-0.694,2.44-2.58,3.7-5.019,4.17-0.53.1-1.074,0.13-1.706,0.2-0.213,2.83-1.3,5.01-4.244,5.62a4.716,4.716,0,0,1-5.188-2.1C208.754,2255.25,209.422,2252.91,210.953,2251.04Zm10.476-116.43c2.175,2.39,2.951,5.02,1.277,7.88a5.586,5.586,0,0,1-5.87,2.79c-3.265-.39-4.7-2.62-5.439-5.74-2.9.37-5.415-.26-6.51-3.32a4.73,4.73,0,0,1,1.355-5.42c2.058-1.87,4.32-1.61,6.6-.46,2.789-3.8,5.191-4.75,7.68-3.07C222.852,2128.84,223.213,2131.34,221.429,2134.61ZM54.842,2187.48a9.106,9.106,0,1,1-8.872-9.28A8.988,8.988,0,0,1,54.842,2187.48Zm-12.022-.66c0.576,2.16,1.512,3.3,3.03,2.9a3.757,3.757,0,0,0,2.3-2.4,1.992,1.992,0,0,0-2.413-2.44C44.684,2185.07,43.788,2186.14,42.82,2186.82Zm306.053-70.3c-2.559,1.38-4.877,1.61-6.972-.4a4.757,4.757,0,0,1-1.085-5.68c1.141-2.64,3.394-3.35,6.2-2.98,0.1-.66.159-1.27,0.285-1.88a4.547,4.547,0,0,1,5.142-3.86,4.379,4.379,0,0,1,4.113,4.66c-0.022,1.28.107,2.12,1.389,2.87,2.186,1.29,2.911,3.45,2.494,5.96a5.449,5.449,0,0,1-4,4.58,5.69,5.69,0,0,1-6.282-1.69C349.742,2117.64,349.368,2117.13,348.873,2116.52ZM27.857,2188.78A9.125,9.125,0,1,1,37,2179.73,9.154,9.154,0,0,1,27.857,2188.78Zm-0.608-6.21c0.369,0.01.739,0.01,1.108,0.02,0.688-.97,1.8-1.88,1.96-2.93a2.2,2.2,0,0,0-2.459-2.52c-1.585.02-2.738,0.95-2.512,2.47C25.5,2180.67,26.582,2181.59,27.249,2182.57Zm255.782,3.02c1.329-.98,2.527-2.44,4.014-2.85a4.079,4.079,0,0,1,4.737,5.55,3.018,3.018,0,0,0,.235,3.19,5.279,5.279,0,0,1-2.179,7.83c-2.9,1.43-6.254-.05-7.587-3.22a2.53,2.53,0,0,0-1.552-1.49,4.676,4.676,0,0,1-4.81-3.13,4.187,4.187,0,0,1,1.056-4.8c1.753-1.72,3.785-1.76,5.913-.71a1.115,1.115,0,0,0,.452.04C283.217,2185.86,283.124,2185.73,283.031,2185.59Zm39.648-111.1c-2.275-.05-3.187-1.07-2.787-2.78,0.923-3.95,1.939-7.88,3.128-11.75a2.076,2.076,0,0,1,3.637-.87c2.956,2.77,5.828,5.65,8.589,8.61a1.968,1.968,0,0,1-.839,3.46C330.41,2072.46,326.322,2073.47,322.679,2074.49Zm-55.226,1.85c-0.2.76-.427,1.77-0.733,2.75-0.9,2.88-1.76,5.78-2.768,8.63-0.809,2.28-2.525,2.74-4.19,1.03-2.669-2.72-5.255-5.54-7.725-8.45-1.478-1.74-.934-3.35,1.33-3.94,3.686-.97,7.418-1.78,11.158-2.52C266.156,2073.52,267.337,2074.19,267.453,2076.34Zm22.28,63.97a7.284,7.284,0,0,1-7.3,7.23,7.43,7.43,0,0,1-7.334-7.49,7.306,7.306,0,0,1,7.357-7.17A7.174,7.174,0,0,1,289.733,2140.31Zm-7.25-3.12c-0.988,1.41-1.985,2.21-1.982,3.01a2.647,2.647,0,0,0,1.783,1.9,2.975,2.975,0,0,0,2.117-1.86C284.511,2139.53,283.447,2138.63,282.483,2137.19Zm-146.911-21.01a7.156,7.156,0,0,1,7.215-7.3,7.281,7.281,0,0,1,7.417,7.41,7.472,7.472,0,0,1-7.406,7.24A7.294,7.294,0,0,1,135.572,2116.18Zm10.342,0.08c-1.466-1.03-2.26-2.01-3.047-2.01-0.7,0-2.021,1.21-1.944,1.71a3.009,3.009,0,0,0,1.84,2.1C143.468,2118.19,144.386,2117.19,145.914,2116.26Zm-18.576-9.12a7.32,7.32,0,0,1-.12,14.64,7.389,7.389,0,0,1-7.283-7.28A7.31,7.31,0,0,1,127.338,2107.14Zm-0.165,4.25c-0.909,1.5-1.848,2.36-1.791,3.16,0.051,0.7,1.351,1.95,1.844,1.84a3.028,3.028,0,0,0,2.012-1.99C129.315,2113.67,128.219,2112.83,127.173,2111.39Zm170.9,33.98a7.163,7.163,0,0,1-7.378-7.33,7.341,7.341,0,0,1,7.2-7.33,7.485,7.485,0,0,1,7.452,7.4A7.319,7.319,0,0,1,298.069,2145.37Zm-0.115-4.31c0.969-1.37,2-2.21,1.892-2.84a3,3,0,0,0-1.912-2.02,2.65,2.65,0,0,0-1.883,1.78C296.022,2138.78,297,2139.62,297.954,2141.06Zm-141.2-75.13c-0.274-2.42-.535-4.74-0.809-7.17,6.7,3.05,12.9.62,19.122-.67,1.66-.35,3.244-0.26,3.809,1.38a4.487,4.487,0,0,1-.494,3.59c-1,1.37-2.561,1.13-4.048.23a4.839,4.839,0,0,0-2.721-.74,84.954,84.954,0,0,0-9.424,1.2A32.352,32.352,0,0,0,156.758,2065.93Zm183.481,212.24c0.852,3.39,3.578,4.52,6.354,5.57,3.234,1.24,6.539,2.31,9.676,3.75a3.684,3.684,0,0,1,1.917,2.82,3.887,3.887,0,0,1-2.358,2.67c-0.838.22-2.126-.83-3.061-1.53-1-.74-1.695-1.9-2.73-2.55a22.3,22.3,0,0,0-4.317-1.98c-2.749-.99-5.541-1.87-8.68-2.92,0.708-1.54,1.663-3.63,2.618-5.72C339.851,2278.24,340.045,2278.21,340.239,2278.17ZM90.53,2231.82c1.32-.97,2.95-2.17,4.723-3.48,0.635,6.39,5.23,10.08,8.8,14.45a3.945,3.945,0,0,1,.668,3.32,3.09,3.09,0,0,1-2.838,1.21c-0.892-.33-1.5-1.7-2-2.73-0.447-.9-0.39-2.08-0.906-2.92a32.41,32.41,0,0,0-3.264-4.39C94.145,2235.49,92.435,2233.81,90.53,2231.82ZM55.9,2203.56c-0.226,1.77-.439,3.44-0.7,5.46-3.7-2.99-7.953-2.14-11.826-2.96-0.541-.11-1.221.69-1.863,0.74-0.926.08-2.211,0.2-2.724-.32a2.813,2.813,0,0,1-.352-2.69,3.117,3.117,0,0,1,2.58-.97c3.516,0.44,6.987,1.26,10.507,1.64C52.83,2204.61,54.219,2203.94,55.9,2203.56Zm98.574-77.08c0.2,1.32.386,2.53,0.51,3.34-3.262.42-6.275,0.76-9.268,1.23-0.533.08-.941,0.79-1.488,1.01a3.9,3.9,0,0,1-2.309.45,2.062,2.062,0,0,1-.84-1.88,2.755,2.755,0,0,1,1.841-1.41c2.716-.47,5.486-0.62,8.2-1.12A14.255,14.255,0,0,0,154.479,2126.48Zm116.146,28.09c0.154-1.29.308-2.57,0.487-4.07,3.418,2.77,7.36,2.18,11.024,2.81a4.627,4.627,0,0,1,2.411,1.24,2.305,2.305,0,0,1-.669,1.89,4.2,4.2,0,0,1-2.518-.49C278.016,2154.27,274.5,2154.18,270.625,2154.57Zm-229.487,9.78a12.374,12.374,0,0,1-7.315-1.63c0.062-.24.123-0.49,0.185-0.74q3.651,0.81,7.3,1.63C41.253,2163.85,41.2,2164.1,41.138,2164.35ZM287.4,2108.19c-0.444-2.74-.831-5.13-1.236-7.64C288.217,2101.92,288.891,2105.8,287.4,2108.19Zm-2.969,7.87c-2.006,1.49-4.012,2.99-6.019,4.48l-0.638-.81c1.979-1.53,3.958-3.05,5.937-4.58C283.953,2115.45,284.193,2115.76,284.433,2116.06ZM49.065,2161.71c1.694-2.04,3.212-3.87,4.727-5.7C54.529,2158.06,51.717,2161.59,49.065,2161.71Zm90.421,59.86c1.985,1.58,3.921,3.12,6.118,4.87C142.655,2226.47,139.177,2223.56,139.486,2221.57Zm126.538,66.82c-2.073,1.41-4.146,2.81-6.5,4.41A6.724,6.724,0,0,1,266.024,2288.39ZM131.8,2207.86c1.183,2.21,2.367,4.41,3.55,6.62-0.345.18-.691,0.35-1.036,0.53q-1.8-3.315-3.6-6.63C131.076,2208.2,131.437,2208.03,131.8,2207.86ZM21.117,2152.89l6.082,4.44c-0.22.3-.439,0.6-0.659,0.91-2.025-1.49-4.05-2.97-6.075-4.46C20.682,2153.49,20.9,2153.19,21.117,2152.89Zm234.894-24.71c-1.075,2.57-2.033,4.87-3.051,7.31C251.964,2133.42,253.54,2129.54,256.011,2128.18Zm-103.292,99.88c2.829-1.31,5.061-2.33,7.536-3.47C159.129,2227.04,156.221,2228.43,152.719,2228.06Zm99.061-161.22c1.285-2.66,2.348-4.86,3.529-7.31C255.978,2061.96,254.417,2065.34,251.78,2066.84ZM125.61,2202.96c-3.037-.42-5.448-0.75-8.016-1.11C119.455,2200.44,123.139,2200.84,125.61,2202.96Zm136.881-79.57q3.638-.81,7.274-1.64c0.085,0.38.17,0.75,0.255,1.13-2.426.54-4.853,1.07-7.279,1.61C262.658,2124.13,262.574,2123.76,262.491,2123.39Zm-24.723-51.99h8A6.685,6.685,0,0,1,237.768,2071.4Z" transform="translate(-9 -2044.97)"/>
</svg>
