<svg width="36" height="20" viewBox="0 0 36 20" fill="none" xmlns="http://www.w3.org/2000/svg">
<path d="M25.9181 14.9421C25.103 14.9421 24.44 14.2785 24.44 13.4635C24.44 12.6484 25.103 11.9854 25.9181 11.9854C26.7333 11.9854 27.3963 12.6483 27.3963 13.4635C27.3963 14.2787 26.7333 14.9421 25.9181 14.9421ZM9.58 14.9421C8.76495 14.9421 8.10195 14.2785 8.10195 13.4635C8.10195 12.6484 8.76481 11.9854 9.58 11.9854C10.395 11.9854 11.058 12.6483 11.058 13.4635C11.058 14.2787 10.3952 14.9421 9.58 14.9421ZM26.4482 6.03807L29.4024 0.921582C29.4838 0.780379 29.5057 0.612684 29.4636 0.455292C29.4214 0.2979 29.3185 0.163667 29.1775 0.0820456C29.0363 0.000762997 28.8686 -0.0212003 28.7112 0.0209726C28.5538 0.0631456 28.4196 0.166011 28.3379 0.307012L25.3468 5.48817C23.0593 4.44436 20.4903 3.8628 17.749 3.8628C15.0078 3.8628 12.4388 4.44436 10.1514 5.48817L7.16014 0.307012C7.07849 0.166011 6.94426 0.0631456 6.78688 0.0209726C6.6295 -0.0212003 6.46182 0.000762997 6.3206 0.0820456C6.17949 0.16359 6.07653 0.297825 6.03435 0.455249C5.99216 0.612672 6.01421 0.780404 6.09563 0.921582L9.04984 6.03807C3.97704 8.79707 0.507564 13.9326 0 20H35.4981C34.9901 13.9328 31.5206 8.79707 26.4482 6.03794" fill="#181D2B"/>
</svg>
