<svg width="23" height="22" viewBox="0 0 23 22" fill="none" xmlns="http://www.w3.org/2000/svg">
<mask id="mask0_64_1977" style="mask-type:alpha" maskUnits="userSpaceOnUse" x="0" y="0" width="23" height="22">
<rect x="0.498169" width="22" height="22" fill="#D9D9D9"/>
</mask>
<g mask="url(#mask0_64_1977)">
<path d="M11.5898 20.1667C10.3064 20.1667 9.1033 19.9223 7.98038 19.4334C6.85746 18.9445 5.87968 18.2837 5.04705 17.4511C4.21441 16.6184 3.55364 15.6407 3.06475 14.5177C2.57587 13.3948 2.33142 12.1917 2.33142 10.9084C2.33142 8.67782 3.04184 6.7108 4.46267 5.00733C5.8835 3.30386 7.69392 2.24587 9.89392 1.83337C9.61892 3.34587 9.70295 4.824 10.146 6.26775C10.5891 7.7115 11.3529 8.97574 12.4377 10.0605C13.5224 11.1452 14.7866 11.9091 16.2304 12.3521C17.6741 12.7952 19.1523 12.8792 20.6648 12.6042C20.2675 14.8042 19.2134 16.6146 17.5023 18.0355C15.7911 19.4563 13.8203 20.1667 11.5898 20.1667Z" fill="#FEA031"/>
</g>
</svg>
