<svg width="23" height="22" viewBox="0 0 23 22" fill="none" xmlns="http://www.w3.org/2000/svg">
<mask id="mask0_64_1981" style="mask-type:alpha" maskUnits="userSpaceOnUse" x="0" y="0" width="23" height="22">
<rect x="0.498047" width="22" height="22" fill="#D9D9D9"/>
</mask>
<g mask="url(#mask0_64_1981)">
<path d="M11.4981 21.3583L8.42727 18.3333H4.16477V14.0708L1.13977 10.9999L4.16477 7.9291V3.6666H8.42727L11.4981 0.641602L14.5689 3.6666H18.8314V7.9291L21.8564 10.9999L18.8314 14.0708V18.3333H14.5689L11.4981 21.3583ZM11.4981 15.5833C12.7662 15.5833 13.8471 15.1364 14.7408 14.2426C15.6346 13.3489 16.0814 12.268 16.0814 10.9999C16.0814 9.73188 15.6346 8.65098 14.7408 7.75723C13.8471 6.86348 12.7662 6.4166 11.4981 6.4166C10.23 6.4166 9.14915 6.86348 8.2554 7.75723C7.36165 8.65098 6.91477 9.73188 6.91477 10.9999C6.91477 12.268 7.36165 13.3489 8.2554 14.2426C9.14915 15.1364 10.23 15.5833 11.4981 15.5833ZM11.4981 18.7916L13.7898 16.4999H16.9981V13.2916L19.2898 10.9999L16.9981 8.70827V5.49994H13.7898L11.4981 3.20827L9.20644 5.49994H5.9981V8.70827L3.70644 10.9999L5.9981 13.2916V16.4999H9.20644L11.4981 18.7916Z" fill="white"/>
</g>
</svg>
