<svg width="115" height="96" viewBox="0 0 115 96" fill="none" xmlns="http://www.w3.org/2000/svg">
<path d="M47.2336 40.9888L47.7735 41.5288C48.0883 47.2784 54.414 47.0835 53.7126 53.407L50.4731 52.3272L51.013 48.5477H50.4731L49.9332 50.7074H48.3134C47.5332 47.8556 46.6424 45.2202 43.9941 43.6884C40.8836 58.045 55.239 63.9501 66.1308 57.7264C68.6652 53.6149 71.3529 49.2502 69.9103 44.2284H68.2905L63.4312 52.3272V48.5477C61.9275 49.6125 61.9265 50.5897 62.3514 52.3272L59.1119 53.407L59.6518 48.0078C64.8334 47.3345 63.8643 44.5345 67.3338 41.9294C69.3493 40.416 72.9052 40.7853 75.3095 39.909C77.8174 35.1161 76.1879 30.164 77.1371 24.7912C77.9038 20.4529 77.9481 15.2891 75.952 11.2932C74.0844 7.55477 71.4372 4.79037 67.7506 2.82884C57.0094 -2.88569 40.5348 1.33272 37.2337 13.9928C35.648 20.0739 38.144 24.8474 38.1068 30.7303C38.0862 33.911 35.9374 36.4038 38.8076 39.1974C40.713 41.052 44.723 40.937 47.2336 40.9888Z" fill="#181D2B"/>
<path d="M49.3955 8.15303C49.5881 8.31159 47.0342 9.59938 44.9815 12.0919C42.9289 14.5845 42.1547 17.3379 41.9622 17.1793C41.7696 17.0208 41.883 13.7232 43.9357 11.2306C45.9883 8.73808 49.203 7.99446 49.3955 8.15303Z" fill="#F4E6D6"/>
<path d="M50.5161 10.8698C50.6715 10.9987 48.6006 12.0343 46.9321 14.0465C45.2636 16.0587 44.6293 18.2855 44.4739 18.1566C44.3185 18.0277 44.4192 15.3585 46.0878 13.3463C47.7563 11.3342 50.3607 10.7409 50.5161 10.8698Z" fill="#F4E6D6"/>
<path d="M51.1232 13.2428C51.2669 13.3846 50.7263 13.6434 49.1 15.2903C47.4737 16.9373 46.8194 18.9281 46.6757 18.7862C46.5321 18.6443 46.6933 16.1666 48.3196 14.5197C49.9458 12.8727 50.9795 13.1009 51.1232 13.2428Z" fill="#F4E6D6"/>
<path d="M113.104 23.1713L99.6058 40.4487L83.9481 53.2481L61.2714 66.9049C72.1136 73.2333 77.9393 69.8145 87.7276 63.1864C102.208 53.3815 110.876 40.2274 114.184 23.1713H113.104ZM1.34016 23.7112C1.86605 49.1825 24.1394 62.5526 44.5339 72.1859C57.1394 78.1401 69.9852 83.4589 83.9481 85.2622L86.6477 78.7831C52.5285 67.873 23.931 53.6574 2.42001 23.7112H1.34016Z" fill="#181D2B"/>
<path d="M45.6375 25.7317C39.8058 28.1057 43.8569 36.4977 49.925 34.1091C56.8992 31.3631 51.9967 23.1428 45.6375 25.7317ZM70.9901 33.4299C71.9231 28.3865 65.9893 20.8789 61.6802 27.0308C57.6076 32.8452 67.0163 35.5124 70.9901 33.4299ZM56.9521 32.3501L54.2525 40.9888L56.4122 39.909L60.1916 40.9888C60.0507 37.7601 59.297 34.6723 56.9521 32.3501ZM55.8723 48.0078L55.3324 48.5477V53.407H58.032V48.0078H55.8723Z" fill="#F4E6D6"/>
<path d="M85.0278 87.422C83.0361 88.1067 79.2372 87.3664 77.7967 88.828C73.845 92.8391 82.67 95.9652 85.5677 95.219C92.4831 93.4389 91.015 87.2617 94.1277 82.5627C96.5114 78.9647 100.693 77.6214 99.0658 72.8442C90.5188 70.1586 85.9986 80.2486 85.0278 87.422ZM38.0547 89.0418C35.3275 88.3923 32.2252 88.875 30.0774 86.759C26.2536 82.992 27.0381 75.8148 21.8354 73.0159C19.1601 71.5764 13.5325 73.2664 15.4028 77.1155C16.3045 78.9707 18.3303 80.2503 19.4447 82.025C21.9202 85.9664 22.7296 91.2625 26.7244 94.0884C31.3127 97.3344 37.4462 94.5058 38.0547 89.0418ZM27.7962 78.2434L31.1512 84.6998L37.5148 84.2905L53.1725 79.3232C45.7156 71.787 36.3685 75.4541 27.7962 78.2434ZM96.3662 80.4031L94.2065 86.3422C98.9594 89.0472 103.182 90.4769 108.244 87.82C111.832 85.9378 115.917 80.2627 109.861 78.2078C106.331 77.0091 100.388 80.4004 96.3662 80.4031ZM20.7772 86.8821L16.4578 80.4031C12.0667 80.6854 6.49522 76.6166 2.47875 78.88C-1.93997 81.3701 2.24712 85.6063 5.12004 86.9566C11.1677 89.7993 14.6415 89.6147 20.7772 86.8821Z" fill="#181D2B"/>
</svg>
