<?xml version="1.0" encoding="utf-8"?>
<!-- Generator: Adobe Illustrator 23.0.6, SVG Export Plug-In . SVG Version: 6.00 Build 0)  -->
<svg version="1.1" id="Layer_1" xmlns="http://www.w3.org/2000/svg" xmlns:xlink="http://www.w3.org/1999/xlink" x="0px" y="0px"
	 viewBox="0 0 24 24" style="enable-background:new 0 0 24 24;" xml:space="preserve">
<style type="text/css">
	.st0{fill:#D9D9D9;filter:url(#Adobe_OpacityMaskFilter);}
	.st1{mask:url(#mask0_186_2863_1_);}
	.st2{fill:#181D2B;}
</style>
<defs>
	<filter id="Adobe_OpacityMaskFilter" filterUnits="userSpaceOnUse" x="2" y="4" width="21" height="19">
		<feColorMatrix  type="matrix" values="1 0 0 0 0  0 1 0 0 0  0 0 1 0 0  0 0 0 1 0"/>
	</filter>
</defs>
<mask maskUnits="userSpaceOnUse" x="2" y="4" width="21" height="19" id="mask0_186_2863_1_">
	<rect class="st0" width="24" height="24"/>
</mask>
<g class="st1">
	<path class="st2" d="M19,23l-1.4-1.4l1.6-1.6H15v-2h4.2l-1.6-1.6L19,15l4,4L19,23z M4,20c-0.5,0-1-0.2-1.4-0.6C2.2,19,2,18.5,2,18
		V6c0-0.6,0.2-1,0.6-1.4C3,4.2,3.5,4,4,4h16c0.5,0,1,0.2,1.4,0.6C21.8,5,22,5.4,22,6v7.8c-0.5-0.3-0.9-0.5-1.4-0.6S19.5,13,19,13
		c-1.7,0-3.1,0.6-4.3,1.8S13,17.3,13,19v1H4z M12,13l8-5V6l-8,5L4,6v2L12,13z"/>
</g>
</svg>
