<?xml version="1.0" encoding="utf-8"?>
<!-- Generator: Adobe Illustrator 23.0.6, SVG Export Plug-In . SVG Version: 6.00 Build 0)  -->
<svg version="1.1" id="home_img" xmlns="http://www.w3.org/2000/svg" xmlns:xlink="http://www.w3.org/1999/xlink" x="0px" y="0px"
	 viewBox="0 0 26 14" style="enable-background:new 0 0 26 14;" xml:space="preserve">
<style type="text/css">
	.st0{opacity:0.5;}
	.st1{fill:#181D2B;}
</style>
<g class="st0">
	<path class="st1" d="M2.5,1h21C24.3,1,25,1.7,25,2.5v9c0,0.8-0.7,1.5-1.5,1.5h-21C1.7,13,1,12.3,1,11.5v-9C1,1.7,1.7,1,2.5,1z"/>
</g>
<g>
	<path class="st1" d="M5.1,10.4H4.3V4.3h0.9V10.4z"/>
	<path class="st1" d="M10.7,4.3h0.8v6.1h-0.8V5.8l0,0.3L9.2,9.5H8.6L7.1,6.2l0-0.4v4.5H6.3V4.3h0.8l1.8,4L10.7,4.3z"/>
	<path class="st1" d="M12.7,4.3h0.9v6.1h-0.9V4.3z M13.3,9.5h1.4c0.4,0,0.8-0.1,1-0.3c0.2-0.2,0.4-0.6,0.4-1V6.4
		c0-0.4-0.1-0.8-0.4-1c-0.2-0.2-0.6-0.3-1-0.3h-1.4V4.3h1.3c0.5,0,0.9,0.1,1.2,0.3c0.3,0.2,0.6,0.4,0.8,0.7C16.9,5.6,17,6,17,6.5
		v1.7c0,0.5-0.1,0.9-0.3,1.2c-0.2,0.3-0.4,0.6-0.8,0.7c-0.3,0.2-0.8,0.3-1.3,0.3h-1.3V9.5z"/>
	<path class="st1" d="M18,4.3h0.8v6.1H18V4.3z M18.5,9.6h1.6c0.4,0,0.7-0.1,0.9-0.2c0.2-0.2,0.3-0.4,0.3-0.7v0c0-0.2,0-0.4-0.1-0.5
		c-0.1-0.1-0.2-0.3-0.3-0.3c-0.2-0.1-0.3-0.1-0.6-0.1h-1.9V6.9h1.9c0.3,0,0.6-0.1,0.7-0.2c0.2-0.1,0.2-0.4,0.2-0.7
		c0-0.3-0.1-0.5-0.3-0.7c-0.2-0.2-0.4-0.2-0.8-0.2h-1.7V4.3h1.9c0.4,0,0.7,0.1,1,0.2c0.3,0.1,0.5,0.3,0.6,0.6
		c0.1,0.2,0.2,0.5,0.2,0.9c0,0.2,0,0.4-0.1,0.6C22,6.7,21.9,6.9,21.7,7c-0.2,0.1-0.4,0.2-0.6,0.3c0.2,0,0.5,0.1,0.6,0.3
		C21.9,7.6,22,7.8,22.1,8c0.1,0.2,0.1,0.4,0.1,0.7v0c0,0.3-0.1,0.6-0.2,0.9c-0.1,0.3-0.4,0.4-0.6,0.6c-0.3,0.1-0.6,0.2-0.9,0.2h-2
		V9.6z"/>
</g>
</svg>
