<?xml version="1.0" encoding="utf-8"?>
<!-- Generator: Adobe Illustrator 23.0.6, SVG Export Plug-In . SVG Version: 6.00 Build 0)  -->
<svg version="1.1" id="home_img" xmlns="http://www.w3.org/2000/svg" xmlns:xlink="http://www.w3.org/1999/xlink" x="0px" y="0px"
	 viewBox="0 0 24 12" style="enable-background:new 0 0 24 12;" xml:space="preserve">
<style type="text/css">
	.st0{opacity:0.5;}
	.st1{fill:#FFFFFF;}
	.st2{opacity:0.95;}
	.st3{fill:#3A3A3A;}
</style>
<g class="st0">
	<path class="st1" d="M1.5,0h21C23.3,0,24,0.7,24,1.5v9c0,0.8-0.7,1.5-1.5,1.5h-21C0.7,12,0,11.3,0,10.5v-9C0,0.7,0.7,0,1.5,0z"/>
</g>
<g transform="translate(8.000000, 7.000000)" class="st2">
	<polygon class="st3" points="-5,2.4 -3.1,2.4 -3.1,-4.4 -5,-4.4 	"/>
	<path class="st3" d="M0.9-4.4L0.5-1.2L0.2-2.9C0.1-3.5,0-4,0-4.4h-2.4v6.8h1.6l0-4.5l0.7,4.5H1l0.6-4.6l0,4.6h1.6v-6.8H0.9z"/>
	<path class="st3" d="M4,2.4v-6.8h2.9c0.7,0,1.2,0.5,1.2,1.2v4.4c0,0.7-0.5,1.2-1.2,1.2H4z M6.2-3.2C6.1-3.2,6-3.2,5.8-3.2v4.4
		c0.3,0,0.4,0,0.5-0.2C6.3,1,6.4,0.7,6.4,0.2v-2.6c0-0.3,0-0.5,0-0.6S6.3-3.1,6.2-3.2z"/>
	<path class="st3" d="M11.7-2.7h0.1c0.7,0,1.2,0.5,1.2,1.2v2.7c0,0.6-0.5,1.2-1.2,1.2h-0.1c-0.4,0-0.8-0.2-1-0.5l-0.1,0.4H8.9v-6.7
		h1.8v2.2C10.9-2.5,11.3-2.7,11.7-2.7z M11.3,0.6V-1c0-0.3,0-0.4-0.1-0.5c0-0.1-0.2-0.1-0.3-0.1s-0.3,0-0.3,0.1V-1v1.7v0.5
		c0,0.1,0.2,0.1,0.3,0.1c0.1,0,0.2,0,0.3-0.1C11.3,1.1,11.3,0.9,11.3,0.6z"/>
</g>
</svg>
