<?xml version="1.0" encoding="utf-8"?>
<!-- Generator: Adobe Illustrator 23.0.6, SVG Export Plug-In . SVG Version: 6.00 Build 0)  -->
<svg version="1.1" id="home_img" xmlns="http://www.w3.org/2000/svg" xmlns:xlink="http://www.w3.org/1999/xlink" x="0px" y="0px"
	 viewBox="0 0 26 14" style="enable-background:new 0 0 26 14;" xml:space="preserve">
<style type="text/css">
	.st0{fill:#F5C518;}
	.st1{fill:#3A3A3A;}
</style>
<g>
	<path class="st0" d="M2.5,1h21C24.3,1,25,1.7,25,2.5v9c0,0.8-0.7,1.5-1.5,1.5h-21C1.7,13,1,12.3,1,11.5v-9C1,1.7,1.7,1,2.5,1z"/>
</g>
<g transform="translate(8.000000, 7.000000)">
	<polygon class="st1" points="-4,3.4 -2.1,3.4 -2.1,-3.4 -4,-3.4 	"/>
	<path class="st1" d="M1.9-3.4L1.5-0.2L1.2-1.9C1.1-2.5,1-3,1-3.4h-2.4v6.8h1.6l0-4.5l0.7,4.5H2l0.6-4.6l0,4.6h1.6v-6.8H1.9z"/>
	<path class="st1" d="M5,3.4v-6.8h2.9c0.7,0,1.2,0.5,1.2,1.2v4.4c0,0.7-0.5,1.2-1.2,1.2H5z M7.2-2.2C7.1-2.2,7-2.2,6.8-2.2v4.4
		c0.3,0,0.4,0,0.5-0.2C7.3,2,7.4,1.7,7.4,1.2v-2.6c0-0.3,0-0.5,0-0.6C7.3-2.1,7.3-2.1,7.2-2.2z"/>
	<path class="st1" d="M12.7-1.7h0.1c0.7,0,1.2,0.5,1.2,1.2v2.7c0,0.6-0.5,1.2-1.2,1.2h-0.1c-0.4,0-0.8-0.2-1-0.5l-0.1,0.4H9.9v-6.7
		h1.8v2.2C11.9-1.5,12.3-1.7,12.7-1.7z M12.3,1.6V0c0-0.3,0-0.4-0.1-0.5c0-0.1-0.2-0.1-0.3-0.1s-0.3,0-0.3,0.1V0v1.7v0.5
		c0,0.1,0.2,0.1,0.3,0.1c0.1,0,0.2,0,0.3-0.1C12.3,2.1,12.3,1.9,12.3,1.6z"/>
</g>
</svg>
