<svg width="16" height="16" viewBox="0 0 16 16" fill="none" xmlns="http://www.w3.org/2000/svg">
<mask id="mask0_87_380" style="mask-type:alpha" maskUnits="userSpaceOnUse" x="0" y="0" width="16" height="16">
<rect width="16" height="16" fill="#D9D9D9"/>
</mask>
<g mask="url(#mask0_87_380)">
<path d="M7.33334 11.333H8.66668V7.33301H7.33334V11.333ZM8.00001 5.99967C8.1889 5.99967 8.34723 5.93579 8.47501 5.80801C8.60279 5.68023 8.66668 5.5219 8.66668 5.33301C8.66668 5.14412 8.60279 4.98579 8.47501 4.85801C8.34723 4.73023 8.1889 4.66634 8.00001 4.66634C7.81112 4.66634 7.65279 4.73023 7.52501 4.85801C7.39723 4.98579 7.33334 5.14412 7.33334 5.33301C7.33334 5.5219 7.39723 5.68023 7.52501 5.80801C7.65279 5.93579 7.81112 5.99967 8.00001 5.99967ZM8.00001 14.6663C7.07779 14.6663 6.21112 14.4913 5.40001 14.1413C4.5889 13.7913 3.88334 13.3163 3.28334 12.7163C2.68334 12.1163 2.20834 11.4108 1.85834 10.5997C1.50834 9.78856 1.33334 8.9219 1.33334 7.99967C1.33334 7.07745 1.50834 6.21079 1.85834 5.39967C2.20834 4.58856 2.68334 3.88301 3.28334 3.28301C3.88334 2.68301 4.5889 2.20801 5.40001 1.85801C6.21112 1.50801 7.07779 1.33301 8.00001 1.33301C8.92223 1.33301 9.7889 1.50801 10.6 1.85801C11.4111 2.20801 12.1167 2.68301 12.7167 3.28301C13.3167 3.88301 13.7917 4.58856 14.1417 5.39967C14.4917 6.21079 14.6667 7.07745 14.6667 7.99967C14.6667 8.9219 14.4917 9.78856 14.1417 10.5997C13.7917 11.4108 13.3167 12.1163 12.7167 12.7163C12.1167 13.3163 11.4111 13.7913 10.6 14.1413C9.7889 14.4913 8.92223 14.6663 8.00001 14.6663Z" fill="#FEA031"/>
</g>
</svg>
