<svg width="20" height="21" viewBox="0 0 20 21" fill="none" xmlns="http://www.w3.org/2000/svg">
<path d="M9 15.3412H11V9.34119H9V15.3412ZM10 7.34119C10.2833 7.34119 10.5208 7.24535 10.7125 7.05369C10.9042 6.86202 11 6.62452 11 6.34119C11 6.05785 10.9042 5.82035 10.7125 5.62869C10.5208 5.43702 10.2833 5.34119 10 5.34119C9.71667 5.34119 9.47917 5.43702 9.2875 5.62869C9.09583 5.82035 9 6.05785 9 6.34119C9 6.62452 9.09583 6.86202 9.2875 7.05369C9.47917 7.24535 9.71667 7.34119 10 7.34119ZM10 20.3412C8.61667 20.3412 7.31667 20.0787 6.1 19.5537C4.88333 19.0287 3.825 18.3162 2.925 17.4162C2.025 16.5162 1.3125 15.4579 0.7875 14.2412C0.2625 13.0245 0 11.7245 0 10.3412C0 8.95785 0.2625 7.65785 0.7875 6.44119C1.3125 5.22452 2.025 4.16619 2.925 3.26619C3.825 2.36619 4.88333 1.65369 6.1 1.12869C7.31667 0.603687 8.61667 0.341187 10 0.341187C11.3833 0.341187 12.6833 0.603687 13.9 1.12869C15.1167 1.65369 16.175 2.36619 17.075 3.26619C17.975 4.16619 18.6875 5.22452 19.2125 6.44119C19.7375 7.65785 20 8.95785 20 10.3412C20 11.7245 19.7375 13.0245 19.2125 14.2412C18.6875 15.4579 17.975 16.5162 17.075 17.4162C16.175 18.3162 15.1167 19.0287 13.9 19.5537C12.6833 20.0787 11.3833 20.3412 10 20.3412Z" fill="#486385" fill-opacity="0.5"/>
</svg>
