<svg width="19" height="18" viewBox="0 0 19 18" fill="none" xmlns="http://www.w3.org/2000/svg">
<path d="M8.56777 13.5853H10.3348V8.2842H8.56777V13.5853ZM9.45129 6.51716C9.70162 6.51716 9.91146 6.43249 10.0808 6.26315C10.2501 6.09381 10.3348 5.88397 10.3348 5.63364C10.3348 5.38331 10.2501 5.17348 10.0808 5.00413C9.91146 4.83479 9.70162 4.75012 9.45129 4.75012C9.20096 4.75012 8.99113 4.83479 8.82179 5.00413C8.65244 5.17348 8.56777 5.38331 8.56777 5.63364C8.56777 5.88397 8.65244 6.09381 8.82179 6.26315C8.99113 6.43249 9.20096 6.51716 9.45129 6.51716ZM9.45129 18.0029C8.22909 18.0029 7.08051 17.771 6.00556 17.3072C4.93061 16.8433 3.99555 16.2138 3.20039 15.4186C2.40522 14.6235 1.77571 13.6884 1.31186 12.6135C0.848013 11.5385 0.616089 10.3899 0.616089 9.16772C0.616089 7.94552 0.848013 6.79694 1.31186 5.72199C1.77571 4.64704 2.40522 3.71199 3.20039 2.91682C3.99555 2.12165 4.93061 1.49214 6.00556 1.02829C7.08051 0.564444 8.22909 0.33252 9.45129 0.33252C10.6735 0.33252 11.8221 0.564444 12.897 1.02829C13.972 1.49214 14.907 2.12165 15.7022 2.91682C16.4974 3.71199 17.1269 4.64704 17.5907 5.72199C18.0546 6.79694 18.2865 7.94552 18.2865 9.16772C18.2865 10.3899 18.0546 11.5385 17.5907 12.6135C17.1269 13.6884 16.4974 14.6235 15.7022 15.4186C14.907 16.2138 13.972 16.8433 12.897 17.3072C11.8221 17.771 10.6735 18.0029 9.45129 18.0029Z" fill="#FEA031"/>
</svg>
