<?xml version="1.0" encoding="utf-8"?>
<!-- Generator: Adobe Illustrator 23.0.6, SVG Export Plug-In . SVG Version: 6.00 Build 0)  -->
<svg version="1.1" id="Layer_1" xmlns="http://www.w3.org/2000/svg" xmlns:xlink="http://www.w3.org/1999/xlink" x="0px" y="0px"
	 viewBox="0 0 16 14" style="enable-background:new 0 0 16 14;" xml:space="preserve">
<style type="text/css">
	.st0{opacity:0.5;}
	.st1{fill:#FFFFFF;}
</style>
<g transform="translate(0.000000,512.000000) scale(0.100000,-0.100000)" class="st0">
	<path class="st1" d="M61.9,5114.6c-14-2-26.1-7.8-36.1-17.2c-23.2-21.8-27.1-57.2-9.4-83.7c10-14.9,25.2-24.8,43.5-28
		c3.7-0.7,13.8-0.9,17.8-0.5c6.4,0.8,13.1,2.5,18.8,5c8,3.5,13.9,5.4,19.9,6.4c3.5,0.6,12.5,0.5,15.8-0.1c4.1-0.8,8.5-2.3,12.7-4.4
		c4.2-2.1,5.2-2.3,7.1-1.2c3,1.6,3.5,5.5,1,7.8c-1.2,1.1-8,4.4-11.5,5.6c-5.8,1.9-13.2,3-18.9,2.7c-1.7-0.1-3-0.1-3,0
		c0,0.1,0.7,1,1.5,2.1c7.4,9.2,12.1,20.1,13.8,32c0.7,4.6,0.7,13.9,0,18.2c-1.5,9.8-5,18.8-10.2,26.6
		c-10.2,15.3-25.3,25.1-43.7,28.5C77.4,5115.1,65.8,5115.2,61.9,5114.6z M73.7,5098.6c2.6-0.7,4.7-1.8,6.6-3.7
		c5.5-5.4,5.6-13.9,0.3-19.6c-2.6-2.8-6.2-4.3-10.1-4.3c-2.8,0-4.9,0.6-7.1,1.9c-8,4.8-9.2,15.5-2.7,22
		C64.3,5098.4,69.2,5099.8,73.7,5098.6z M42.7,5074.6c9.7-3.4,12.5-15.8,5.2-23.1c-5.8-5.8-15.2-5.4-20.5,0.8
		c-4.7,5.5-4.5,13.2,0.5,18.6c1.8,1.9,4.8,3.6,7.2,4.1C37,5075.5,40.8,5075.3,42.7,5074.6z M105.7,5075.1c2.6-0.5,5.6-2.2,7.4-4.1
		c6.2-6.7,4.9-16.6-2.8-21.6c-2.5-1.6-4.8-2.2-8.3-2c-2.4,0.1-3.1,0.3-5,1.3c-3,1.4-5.2,3.6-6.7,6.7c-1,2-1.2,2.6-1.3,5
		c-0.1,3.1,0.4,5.7,1.6,7.8C93.9,5073.7,99.6,5076.3,105.7,5075.1z M72.9,5055c4.1-1.9,4.1-8.1,0-10c-3.2-1.5-6.8,0.3-7.7,3.8
		c-0.9,3.3,1.9,6.8,5.4,6.8C71.2,5055.6,72.2,5055.3,72.9,5055z M53.9,5036.8c2.7-0.7,4.2-1.6,6.3-3.6c2.2-2.2,3.3-4.2,4-7.1
		c0.7-3.3,0-7.1-1.8-10.2c-0.9-1.6-3.6-4.1-5.5-5c-5.4-2.8-12-1.7-16.2,2.5c-4.5,4.6-5.4,11-2.4,16.8
		C41,5035.4,47.9,5038.3,53.9,5036.8z M94.6,5036.6c3.5-1,6.7-3.7,8.3-6.7c1.6-3.1,2-7.2,1.2-10.4c-1.3-4.9-5.7-9.1-10.6-10
		c-4.8-0.9-8.9,0.3-12.5,3.7c-4.4,4.1-5.6,10.6-2.9,16.2c1,2.2,4.1,5.4,6.1,6.4C87.4,5037.3,91.3,5037.6,94.6,5036.6z"/>
</g>
</svg>
