<svg xmlns="http://www.w3.org/2000/svg" xmlns:xlink="http://www.w3.org/1999/xlink" viewBox="51.1 85.4 101.3 26.1">
<path fill="#BE4A3E" d="M76.3,103.9c0,4.2-3.4,7.6-7.6,7.6h-9.9c-4.2,0-7.6-3.4-7.6-7.6V93.1c0-4.2,3.4-7.6,7.6-7.6h9.9c4.2,0,7.6,3.4,7.6,7.6V103.9z"/>
<g id="Слой_3">
	<g>
		<defs>
			<path id="SVGID_1_" d="M76.3,103.9c0,4.2-3.4,7.6-7.6,7.6h-9.9c-4.2,0-7.6-3.4-7.6-7.6V93.1c0-4.2,3.4-7.6,7.6-7.6h9.9     c4.2,0,7.6,3.4,7.6,7.6V103.9z"/>
		</defs>
		<clipPath id="SVGID_2_">
			<use xlink:href="#SVGID_1_" overflow="visible"/>
		</clipPath>
		<path clip-path="url(#SVGID_2_)" fill="#E5A87C" d="M63.7,112.7c4.4,0,7-2.3,7-4.7s-1.5-2.8-1.5-3.1s2.8-1.4,4.5-2.7    c1.7-1.2,1.3-4.3,0.9-5.6c-0.4-1.3-2.2-2.6-4.7-2.6s-4.1,0.9-6.1,0.9c-2.1,0-3.6-0.9-6.1-0.9c-2.6,0-4.3,1.2-4.7,2.6    c-0.4,1.3-0.9,4.4,0.9,5.6c1.7,1.2,4.5,2.5,4.5,2.7s-1.5,0.6-1.5,3.1S59.3,112.7,63.7,112.7z"/>
	</g>
</g>
<g id="Слой_4">
	<path fill="#6F3E31" d="M63.7,101.3c1.8,0,2.2,0.6,4.2,0.6c3.1,0,3.9-2.3,3.9-2.8s0-2.2-2.2-2.2S65.7,98,63.7,98s-3.6-1.1-5.8-1.1   s-2.2,1.8-2.2,2.2s0.8,2.8,3.9,2.8C61.6,101.9,61.9,101.3,63.7,101.3z"/>
	<path fill="#A36D52" d="M63.7,103.9c0.4,0,0.5-0.5,1.5-0.5c0.8,0,0.9,0.8,0.6,1.2c-0.3,0.4-1.2,0.6-1.2,0.6s0.7-0.5,0.8-0.9   c0.1-0.3,0-0.6-0.3-0.6c-0.5,0-0.9,0.6-1.5,0.6l0,0c-0.5,0-0.9-0.6-1.5-0.6c-0.3,0-0.4,0.3-0.3,0.6c0.1,0.3,0.8,0.9,0.8,0.9   s-0.9-0.2-1.2-0.6c-0.3-0.4-0.1-1.2,0.6-1.2C63.2,103.4,63.4,103.9,63.7,103.9"/>
	<path fill="#6F3E31" d="M63.7,108.5c1,0,0.9,0.2,1.9,0.2s1.6-0.2,1.6-0.2s-1,0.7-1.7,0.7c-0.6,0-1.2-0.2-1.7-0.2l0,0   c-0.6,0-1.1,0.2-1.7,0.2c-0.8,0-1.7-0.7-1.7-0.7s0.6,0.2,1.6,0.2S62.8,108.5,63.7,108.5"/>
</g>
<g id="Слой_5">
	
		<ellipse transform="matrix(0.225 -0.9744 0.9744 0.225 -50.5335 135.9109)" fill="#FFFFFF" cx="60.2" cy="99.7" rx="0.5" ry="1.1"/>
	<circle fill="#303030" cx="60.3" cy="99.8" r="0.5"/>
	<circle fill="#FFFFFF" cx="60.5" cy="99.6" r="0.3"/>
	<ellipse transform="matrix(0.225 0.9744 -0.9744 0.225 149.272 11.7135)" fill="#FFFFFF" cx="67.3" cy="99.7" rx="0.5" ry="1.1"/>
	<circle fill="#303030" cx="67.1" cy="99.8" r="0.5"/>
	<circle fill="#FFFFFF" cx="67.3" cy="99.6" r="0.3"/>
</g>
<g>
	<path fill="#FFFFFF" d="M87.2,104.6V93.2h2.7v3.6l3.1-3.9l2.5,0.9l-3.7,4.7l4.2,5.4l-2.4,1.1l-3.7-4.7v4.3H87.2z"/>
	<path fill="#FFFFFF" d="M98.4,95c-0.9,0-1.4-0.8-1.4-1.6c0-0.6,0.6-1.4,1.4-1.4c0.9,0,1.4,0.9,1.4,1.4C99.8,94.2,99.2,95,98.4,95z    M99.7,95.3v9.3h-2.6v-9.3H99.7z"/>
	<path fill="#FFFFFF" d="M106.5,104.6v-6.7c0,0,0-0.3-0.3-0.3c-0.3,0-0.8,0.1-1.7,0.6v6.4h-2.6v-7l-0.2-1.8l2-0.7l0.4,0.7   c0.7-0.4,1.5-0.7,2.4-0.7c0.5,0,2.6,0.1,2.6,2.8v6.7L106.5,104.6L106.5,104.6z"/>
	<path fill="#FFFFFF" d="M114.3,104.8c-3.7,0-3.7-2.3-3.7-2.7v-4.2c0-0.4,0.2-2.7,3.7-2.7c3.7,0,3.7,2.3,3.7,2.7v4.2   C117.9,102.1,117.9,104.8,114.3,104.8z M115.3,98.1c0-0.1-0.1-0.5-1.1-0.5s-1.1,0.4-1.1,0.5v3.7c0,0.1,0.1,0.5,1.1,0.5   s1.1-0.4,1.1-0.5V98.1z"/>
	<path fill="#FFFFFF" d="M121.4,104.6h-1.6V93.3h1.6V104.6z M127.2,93.6l-1.3-0.5l-4.3,5.4l5,6.4l1.3-0.5l-4.6-5.9L127.2,93.6z"/>
	<path fill="#FFFFFF" d="M135.4,102.5c0,0,0,2.3-3.4,2.3s-3.4-1.9-3.4-2.3v-4.7c0-0.4,0.1-2.3,3.4-2.3c3.4,0,3.4,1.9,3.4,2.3V102.5z    M133.9,98.1c0-0.3-0.1-1.3-1.9-1.3s-1.9,1-1.9,1.3v4.1c0,0.4,0.2,1.3,1.9,1.3s1.9-0.9,1.9-1.3V98.1z"/>
	<path fill="#FFFFFF" d="M137.1,97.4L137,96l1.1-0.4l0.5,0.9v0c0.7-0.5,1.9-1.1,3-1.1c0.4,0,2.2,0.1,2.2,2.3v6.8h-1.4v-6.8   c0,0,0-1.1-1.1-1.1c-0.4,0-1.2,0-2.7,1.1v6.7h-1.4L137.1,97.4L137.1,97.4z"/>
	<path fill="#FFFFFF" d="M151.9,97.5v8.5c0,2.3-2.5,2.3-2.5,2.3c-0.9,0-4.1-0.5-4.1-0.5l0.2-1.2c1.4,0.4,3.7,0.5,3.7,0.5   c1.2,0,1.2-1.4,1.2-1.4v-1.8c-0.7,0.3-1.8,0.6-3,0.6c-0.4,0-2.2-0.1-2.2-2.3V98c0-2.5,2.3-2.5,2.3-2.5c1.4,0,2.6,1.1,2.9,1.2   c0,0,0.5-1.1,0.5-1.1l1.4,0.4L151.9,97.5z M150.5,98c-1.6-1.2-2.5-1.2-2.5-1.2c-0.9,0-1.3,0.6-1.3,1.3v4.2c0,0.5,0.5,1,1.3,1   c0.4,0,1.2-0.1,2.4-0.6L150.5,98L150.5,98z"/>
</g>
</svg>