<svg width="163" height="182" viewBox="0 0 163 182" fill="none" xmlns="http://www.w3.org/2000/svg">
<path d="M128.739 146.377C128.739 146.377 77.4229 139.725 49.0722 148.12C20.7215 156.514 13.7526 135.449 13.7526 135.449L16.4451 148.12C16.4451 148.12 9.01344 159.207 16.4451 171.56C23.8768 183.914 34.976 184.706 34.976 184.706H89.8424C89.8424 184.706 94.2746 188.087 104.143 187.661C114.012 187.235 118.444 184.706 118.444 184.706L128.739 146.377Z" fill="#181D2B"/>
<mask id="mask0_76_1487" style="mask-type:alpha" maskUnits="userSpaceOnUse" x="-4" y="-3" width="167" height="197">
<path d="M159.695 106.483C159.695 154.702 125.032 193.792 86.522 193.792C48.012 193.792 -3.75679 155.415 -3.75679 107.196C-6.37011 21.4309 45.755 -2.20789 84.265 -2.20789C122.775 -2.20789 176.801 38.8927 159.695 106.483Z" fill="#D9D9D9"/>
</mask>
<g mask="url(#mask0_76_1487)">
<path d="M21.7827 24.693C24.6103 30.2321 30.539 34.1637 34.8494 38.4724C36.8735 40.4959 39.2709 43.6012 41.9767 44.6494C40.6094 47.5808 36.5766 49.3555 34.4156 51.7767C29.7028 57.0565 29.8083 69.7474 38.8882 70.5452V70.3076C31.9704 66.0585 31.9153 58.1532 38.413 53.2021C36.391 58.1318 36.7545 65.4655 41.5015 68.8821L37.9379 75.7718C33.6168 77.7841 30.9603 81.6858 25.8215 82.3553C23.048 82.7164 16.3026 81.9737 17.2766 77.6724C17.6028 76.2327 19.0104 75.4273 19.8821 74.3464L16.0809 76.9597C15.9695 78.3709 15.7032 79.6426 16.3113 80.9985C18.6586 86.2309 27.3693 86.3382 31.9985 85.0373C24.4146 94.9083 9.57607 97.5102 6.31606 110.933C4.90771 116.732 7.11028 126.279 14.4179 126.613V126.375C13.2062 125.63 12.0884 124.87 11.17 123.762C4.33634 115.516 14.0979 105.904 20.8324 102.043C22.6539 100.998 24.4162 99.6092 26.5342 99.2918C25.6015 103.209 27.0015 107.859 29.4963 110.933C30.7555 112.485 32.5028 113.598 33.6615 115.209C22.5316 118.768 13.23 126.499 13.23 138.967L14.1803 138.729H14.4179L23.6833 147.52C25.3706 141.882 25.0282 141.214 27.2712 136.18L28.8154 133.686C31.5008 129.884 35.8315 128.226 39.8627 126.375C42.7426 125.053 49.0094 122.044 48.6288 121.149V121.386C39.7249 125.543 26.7507 130.014 24.0345 140.63C23.4341 142.977 23.4959 145.143 23.6833 147.52L24.396 148.47L24.6336 148.708C29.7603 151.871 35.4702 157.461 41.7391 157.973L41.9767 156.548L42.6894 157.735H42.927L43.8773 154.647H44.1148L43.4021 158.923C46.1993 160.897 50.7413 161.56 54.093 162.012L57.8942 154.885L63.1209 150.202L71.6736 144.906V144.669C69.5549 143.952 67.2293 144.194 65.0215 144.194C57.6445 144.194 45.7477 146.535 42.4518 154.172H42.2142C43.0942 147.208 52.1271 143.877 58.3694 142.872C61.7567 142.327 65.395 142.007 68.8227 142.333C71.2721 142.566 74.0085 143.455 76.4251 143.418C82.49 143.326 88.6695 142.434 94.7185 141.858C99.5367 141.4 104.395 141.428 109.211 140.801C114.526 140.108 119.967 139.663 125.128 138.154C127.337 137.507 130.287 135.169 132.493 135.641L127.979 145.619L124.653 146.094V145.857C127.516 144.518 129.112 141.569 129.642 138.492C120.651 140.819 111.778 142.169 102.558 143.046C98.5047 143.432 93.7309 144.196 89.7294 143.243L94.0057 145.686L101.846 151.083C106.283 150.027 111.549 150.608 116.1 150.608V150.846L102.796 152.034L103.746 153.697L105.647 153.222L106.597 153.697L110.161 161.774L121.565 159.161L122.277 155.122C124.471 154.713 129.929 154.945 130.891 152.505C131.468 151.042 130.783 149.234 130.592 147.757L135.819 149.895H136.057L137.72 149.42L139.62 147.282C135.747 148.694 133.397 146.841 130.83 144.194L132.731 140.392L132.968 140.155C139.511 137.828 145.798 135.051 150.505 129.702C159.003 120.044 157.771 105.561 148.865 96.6999C144.811 92.6668 139.553 91.0665 134.394 89.0761L141.758 86.9666L145.797 84.087C146.805 82.6119 148.026 81.2947 148.624 79.573C150.119 75.2696 148.883 68.7282 144.372 66.7439C145.3 68.411 146.697 70.0118 146.941 71.9706C147.686 77.9537 141.333 81.921 136.057 82.1617C129.972 82.4389 121.947 77.7914 119.189 72.4458C122.357 73.809 125.831 73.1887 129.167 73.4172C131.578 73.5826 133.883 74.4801 136.294 74.5839C133.733 70.2482 126.95 71.5636 122.752 70.6247C119.835 69.9724 117.808 68.3371 115.15 67.2191L114.675 66.2688C118.315 67.7845 120.84 69.3573 124.891 69.3573L125.366 68.6445L124.415 68.407L123.94 68.6445L118.238 66.5064V66.2688C122.131 67.3094 125.168 67.4868 129.167 66.9815V67.2191L128.454 67.4567V67.6942L134.631 70.5452C132.478 65.4078 127.313 60.2365 121.565 60.0954C117.874 60.0046 114.397 61.7667 110.874 60.3294L111.349 58.9039C120.118 56.8753 126.566 51.3196 133.681 46.3124C137.333 41.128 142.622 36.6744 144.609 30.3948C136.291 30.3948 128.699 30.335 121.327 25.913C109.789 18.9926 102.808 7.26519 89.0166 3.99638C76.3714 0.999601 63.813 5.37598 52.43 10.6026C45.4191 13.8218 38.2864 16.7758 31.2857 20.0149C28.0756 21.5005 25.0805 23.3804 21.7827 24.693Z" fill="#181D2B"/>
<path d="M25.3472 25.8808L26.0599 26.8311H27.2478C32.4492 23.0522 39.0263 21.1065 44.8284 18.4425C59.3188 11.7899 75.7966 2.50286 92.1059 8.63873C102.934 12.7127 109.619 23.1328 119.19 29.1943C123.031 31.6275 127.505 33.2832 132.019 33.8914C134.285 34.1967 136.697 33.9071 138.908 34.4335L138.196 35.859C129.817 36.3472 121.543 32.8441 114.913 27.9821C112.031 25.8682 109.621 23.0199 106.598 21.1293C111.54 28.1442 120.238 33.3549 128.455 35.4088C131.432 36.1529 134.555 35.8747 137.483 36.5717C133.748 42.5258 128.04 47.4142 122.04 50.9695C120.082 52.1301 117.637 53.7465 115.388 54.1523C114.22 51.9008 111.968 50.5994 109.924 49.2423C105.981 46.6245 101.917 44.3072 97.5702 42.4104C84.729 36.8071 70.6075 32.8268 56.4696 34.5015C53.2464 34.883 50.0631 35.4228 46.9665 36.4158C44.8467 37.0958 42.731 38.3226 40.552 38.7099L34.6126 33.3822L29.1484 29.2069C33.7849 25.2648 40.3299 23.1679 45.7787 20.5781C56.4855 15.489 67.1961 9.62396 79.2768 8.79648C82.6891 8.56294 85.8986 9.05472 89.255 9.48806V9.25049C72.8336 5.86289 58.2542 13.6366 43.8781 20.5928C38.7381 23.0798 32.865 24.9336 28.1981 28.2565V28.9693L40.552 41.0856C44.2024 39.8552 47.3091 37.6921 51.2429 36.8772C66.6098 33.6935 82.7407 37.2671 96.8575 43.6263C100.965 45.4768 104.701 47.6912 108.499 50.1009C110.529 51.3893 112.819 52.6599 113.963 54.865L112.775 56.5281C115.726 56.0199 118.981 54.2031 121.565 52.7266C129.218 48.3552 137.684 41.3071 140.809 32.7705C131.011 32.7705 122.953 30.4344 115.151 24.2964C108.245 18.8642 102.762 11.3407 94.4817 7.79486C77.1178 0.358974 59.2259 9.37783 43.6405 16.828C37.5495 19.7397 31.0064 22.1485 25.3472 25.8808ZM130.118 4.97412C128.476 5.63791 126.438 6.66899 125.604 8.30018L126.792 8.77533H127.03L131.068 6.63715L131.544 5.68685L130.118 4.97412ZM29.6235 5.92442C28.4411 6.93507 28.3154 8.04788 27.9605 9.48806H27.7229L27.0102 8.06261L26.0599 9.48806L26.535 12.5765L27.0102 13.2893H27.4853L27.7229 13.0517C29.6295 10.3448 30.3362 9.30204 30.3362 5.92442H29.6235ZM129.168 9.96321V10.4384L129.405 10.6759C131.416 11.1378 134.504 9.92924 135.107 7.82503C132.724 7.12086 131.009 8.64467 129.168 9.96321ZM24.1593 9.48806L22.9714 10.2008C22.5359 12.0296 22.7151 14.1697 23.4466 15.9026C25.7351 15.2231 25.4678 10.9926 24.1593 9.48806ZM132.494 12.5765C134.752 13.6618 137.181 12.1446 138.908 10.6759C137.273 8.8238 133.464 10.7097 132.494 12.5765ZM20.3581 11.8638C18.6756 13.5794 18.8901 16.6935 19.8829 18.7535L20.8332 18.2784L21.0708 18.0408L20.8332 11.8638H20.3581ZM135.82 14.7147L136.295 15.4275C138.64 15.4275 140.63 15.1844 142.71 14.002L141.997 13.0517C139.526 13.0517 137.949 13.4116 135.82 14.7147ZM16.7944 14.9523C14.8746 16.5985 15.5301 19.7962 16.5569 21.842L17.7447 20.8917L17.5072 14.9523H16.7944Z" fill="#F4E6D6"/>
<path d="M139.383 17.0908L140.096 18.5162C142.241 18.7431 144.698 18.3022 146.51 17.0908C144.5 14.7886 141.797 16.7342 139.383 17.0908Z" fill="#F4E6D6"/>
<path d="M84.7403 16.853L84.2651 19.2288L86.1657 19.7039L87.5912 17.5658L87.116 16.853H84.7403ZM92.8179 17.3282V18.5161H93.0554L92.8179 17.3282Z" fill="#181D2B"/>
<path d="M13.4678 17.8035C11.5038 19.8813 11.9626 22.5153 13.2303 24.9307C15.2675 23.8616 14.3756 19.5102 13.4678 17.8035ZM53.8557 18.2786L52.6678 18.7538V18.9913L54.3309 18.5162L53.8557 18.2786ZM51.9551 18.9913L48.6291 20.4168V20.6544L52.4303 19.2289L51.9551 18.9913Z" fill="#F4E6D6"/>
<path d="M142.709 20.1793C143.983 22.8299 147.803 21.7171 150.074 21.1296V20.1793C147.775 18.8914 145.088 19.2817 142.709 20.1793Z" fill="#F4E6D6"/>
<path d="M47.4409 20.8916L45.5403 21.8419V22.0795L47.916 21.1292L47.4409 20.8916ZM9.66633 21.6044C8.41835 23.4952 8.65592 27.3513 10.8542 28.4941L11.3294 27.7813L10.1415 21.6044H9.66633ZM150.311 22.7922L146.272 23.7425C147.048 26.3528 151.476 24.8138 153.4 24.4553L153.162 23.505L150.311 22.7922Z" fill="#F4E6D6"/>
<path d="M6.57811 24.6929C5.41114 27.1178 6.38567 29.9488 7.29084 32.2953H7.76599C8.98499 29.8699 8.27725 27.0252 7.05326 24.6929H6.57811ZM149.361 27.0686V27.7814L149.599 28.0189L156.251 27.7814C155.458 25.1108 151.181 26.1552 149.361 27.0686Z" fill="#F4E6D6"/>
<path d="M3.72777 28.2566L2.77747 29.2069C2.77747 31.5254 3.10009 33.5505 4.20292 35.6214L5.3908 34.9087L4.20292 28.2566H3.72777Z" fill="#F4E6D6"/>
<path d="M90.9177 28.9695V29.2071H91.6305L90.9177 28.9695Z" fill="#181D2B"/>
<path d="M152.449 30.1573V31.1076C154.439 32.0652 156.823 31.3979 158.864 30.87C157.685 28.623 154.391 29.6116 152.449 30.1573ZM114.912 31.3451V31.5827C120.169 35.359 126.828 38.4541 133.443 38.4724V38.2348C126.476 38.0911 120.917 34.1858 114.912 31.3451Z" fill="#F4E6D6"/>
<path d="M89.4917 31.8201L91.1547 33.0079V32.7704L89.4917 31.8201Z" fill="#181D2B"/>
<path d="M0.638456 32.2954C-0.432535 34.2074 0.13337 38.4329 2.53906 39.1851C3.06981 36.9557 2.42978 33.8351 0.638456 32.2954ZM155.063 33.4833L156.013 35.1463L161.24 34.6712V33.7209C159.303 32.4028 157.167 32.6893 155.063 33.4833ZM-1.97488 36.3342L-2.6876 36.8093C-3.09267 38.8867 -1.89624 41.0513 -0.786998 42.7487H0.163305C1.23905 40.5001 -0.885117 38.4679 -1.49973 36.3342H-1.97488ZM157.438 37.0469C158.361 39.6957 161.935 38.565 164.091 38.4724C163.278 35.645 159.555 36.3774 157.438 37.0469ZM45.5403 42.2736C57.602 37.3266 72.6961 40.535 84.7403 44.2229C88.5664 45.3946 92.2538 47.2912 96.1439 48.213C93.724 46.2081 90.0061 45.4089 87.116 44.3023C77.9242 40.7828 67.9434 39.4227 58.1318 39.4227C54.9815 39.4227 51.6659 39.6427 48.6288 40.5443C47.4634 40.89 46.1684 41.1696 45.5403 42.2736ZM159.814 40.373C160.473 42.6511 164.371 42.3475 166.229 41.7984C165.148 39.6013 161.873 39.8829 159.814 40.373ZM-4.82579 40.373C-5.54065 42.7927 -4.12517 44.7945 -2.92518 46.7875H-2.45003L-2.21245 46.55L-1.49973 44.8869L-4.11306 40.373H-4.82579ZM45.5403 42.9863L45.3027 43.2239V45.3621L44.8275 47.5003C60.3849 41.0334 79.1202 47.291 93.7681 53.5411C98.6237 55.613 103.441 58.8725 108.498 60.3293L110.161 53.6772L108.973 52.9645L108.735 55.5778L106.835 54.1524L108.26 58.4287C105.4 58.3677 102.636 56.5027 100.183 55.1761C95.9424 52.8828 91.4064 50.5987 86.8784 48.9383C76.8779 45.2711 66.2336 42.7639 55.5185 43.2332C52.3575 43.3717 49.3695 44.2469 46.253 44.6493C49.8375 41.7578 55.9337 42.2736 60.27 42.2736C69.6435 42.2736 79.2698 44.6458 88.0663 47.7896C92.4527 49.3571 96.8614 51.8959 101.371 52.9645C98.4652 50.5571 94.1383 49.2802 90.6797 47.868C80.0819 43.5408 68.2487 40.5897 56.7063 41.095C52.8856 41.2625 49.2942 42.6796 45.5403 42.9863ZM86.1657 42.2736V42.5112L90.4421 43.699V43.4615L86.1657 42.2736ZM90.6797 43.699V43.9366L91.63 44.1742V43.9366L90.6797 43.699Z" fill="#F4E6D6"/>
<path d="M161.953 43.9364C162.777 46.702 166.206 46.7837 168.605 46.0746C167.648 43.3199 164.291 43.9364 161.953 43.9364Z" fill="#F4E6D6"/>
<path d="M-6.72599 44.1743L-7.43872 44.887C-7.38883 47.0214 -6.23587 49.4611 -4.58781 50.8264L-3.63751 48.6883L-6.72599 44.1743ZM91.8679 44.1743V44.4119L94.4813 45.3622V45.1246L91.8679 44.1743Z" fill="#F4E6D6"/>
<path d="M43.1652 65.5557C43.6973 68.1935 47.7285 68.7813 47.9364 71.2575C48.0072 72.0995 47.2873 72.898 46.9664 73.6333L48.1543 73.8708L55.2815 73.6333L55.7567 72.4454L57.1821 72.683L56.707 74.1084L53.3809 76.0382L49.1046 77.6721V78.8599L49.5797 79.3351L53.8561 78.6224L51.9555 80.523C51.7949 82.3656 50.5737 84.4 51.3981 86.2238C52.4434 88.5373 55.3744 88.3 57.4197 87.7743C62.6756 86.4229 67.4055 83.2594 72.1494 80.7605L72.387 80.523L72.6246 79.5727C67.9857 74.2113 66.281 65.8448 66.4512 58.9036C66.5448 55.0791 67.406 51.323 66.9227 47.4999C61.8555 47.1001 57.0317 46.6102 51.9555 47.4415C50.4533 47.6874 47.6152 47.9383 46.8043 49.4262C45.2898 52.2054 47.6135 55.0634 47.8694 57.7157C48.1747 60.8821 45.4694 63.8 43.1652 65.5557Z" fill="#F4E6D6"/>
<path d="M49.8168 53.9148L50.7671 54.8651L52.6677 54.39V55.3403H51.2422V56.2906L53.8556 57.716L55.0434 57.9536L54.8059 60.0918C57.4955 58.6 63.1481 56.0794 63.5962 52.7269L61.2204 53.4397L61.458 52.7269L62.4083 51.7766L53.8556 52.2518L54.0931 51.3015L54.3307 51.0639C57.218 49.7789 58.5904 48.5033 61.9331 48.9257C58.6803 45.4027 50.0508 49.6394 49.8168 53.9148Z" fill="#181D2B"/>
<path d="M164.329 47.9754V48.9257L164.804 49.6384L165.041 49.876L170.506 50.5887V49.4008L165.041 47.7378L164.329 47.9754ZM-9.10175 48.4505L-9.5769 48.9257C-9.3992 50.9491 -8.10797 54.0271 -6.01327 54.6275L-5.53812 53.6772V52.9645L-8.38903 48.4505H-9.10175Z" fill="#F4E6D6"/>
<path d="M39.6017 49.4009C37.0178 51.1442 34.0127 53.2313 33.4247 56.5282H33.6623L37.9386 51.5305L39.6017 49.4009ZM76.901 51.5391C78.7168 63.8343 91.5982 73.7807 101.609 79.4362C104.7 81.1823 108.114 83.7372 111.587 84.5621V84.3245C104.174 79.4153 95.9285 74.6312 89.7394 68.1694C86.9472 65.2538 85.0416 61.9931 82.8404 58.6663H82.6029L84.741 62.7051C80.5801 59.7741 79.8565 55.1973 76.901 51.5391Z" fill="#F4E6D6"/>
<path d="M41.0268 51.7769C38.2624 55.403 38.0165 59.6801 39.3638 63.8932H39.6013L39.522 56.7659L41.0268 51.7769ZM166.229 52.252C166.863 54.4885 170.457 55.016 172.406 55.8156L172.644 55.5781C171.884 52.6801 169.128 51.3953 166.229 52.252ZM-11.2399 52.4896C-11.1843 54.8589 -9.56591 57.0867 -7.67623 58.429C-6.64587 56.2749 -8.96793 52.8405 -11.2399 52.4896ZM56.4692 52.7272V52.9647H61.2207L56.4692 52.7272ZM69.7735 52.4896C69.7735 59.5893 71.3339 70.1236 77.6135 74.5841C77.3144 72.597 75.8302 71.1464 75.0068 69.3575C73.3689 65.7995 72.2167 62.2506 71.3533 58.429C70.9929 56.8334 71.1241 53.5166 69.7735 52.4896Z" fill="#F4E6D6"/>
<path d="M86.4039 53.6775C87.0902 55.8314 88.8595 57.5939 90.4427 59.1382C95.5603 64.1303 103.598 66.7442 110.637 66.7442V66.5066C107 65.2755 103.294 64.9866 99.7081 63.3447C94.4092 60.9186 90.8223 57.2402 86.4039 53.6775ZM72.8621 54.1526C75.5638 67.0765 85.8028 75.7685 96.6196 82.0497C105.758 87.3565 115.003 91.4558 124.891 95.1525C135.526 99.1283 148.368 102.857 152.108 115.21C152.731 117.267 152.688 119.261 152.688 121.387H152.925C152.945 119.021 153.324 116.854 152.747 114.497C150.972 107.247 145.527 102.632 139.383 98.9478C134.262 95.8767 128.793 94.4232 123.228 92.3897C116.426 89.904 109.641 86.9918 103.272 83.5386C92.2048 77.5391 84.2747 68.1478 76.9008 58.1914H76.6633L83.0778 68.6448L81.1772 66.5066H80.7021L76.4383 60.3296L72.8621 54.1526Z" fill="#F4E6D6"/>
<path d="M57.6568 55.3403L56.2313 57.9537L59.3198 55.3403H57.6568Z" fill="#F4E6D6"/>
<path d="M167.655 56.053L168.605 57.4784L171.693 57.0033V56.5281L171.456 56.2906L167.655 56.053ZM91.8679 56.053L93.0558 57.716C97.5144 60.8192 101.892 63.4021 107.548 63.4178V63.1803C103.968 62.6982 99.9614 61.3559 96.857 59.509C95.1203 58.4758 93.649 56.9722 91.8679 56.053Z" fill="#F4E6D6"/>
<path d="M126.079 56.053V56.5281L126.554 56.053H126.079Z" fill="#181D2B"/>
<path d="M84.9784 57.7158L87.1165 60.8043L87.3541 61.0419C92.477 64.6504 97.0726 68.3514 103.747 68.4067V68.1692C96.4062 65.8212 91.229 61.9898 84.9784 57.7158Z" fill="#F4E6D6"/>
<path d="M169.555 58.1914L169.317 58.429L169.793 60.5672L174.782 61.0423L174.544 59.3793L169.555 58.1914ZM-13.8535 60.3296C-14.5769 62.7823 -12.4701 65.694 -10.0523 66.269L-9.81469 64.3684L-13.8535 60.3296Z" fill="#F4E6D6"/>
<path d="M69.0608 61.7549C69.0608 66.9383 70.0869 75.6704 74.525 79.0979L75.9505 76.0094V75.5343C73.6631 72.9076 71.9381 69.994 70.6789 66.744C70.0591 65.1441 69.8621 63.2511 69.0608 61.7549ZM121.327 61.7549V62.23H125.841V61.9925L121.327 61.7549Z" fill="#F4E6D6"/>
<path d="M111.587 62.4675C111.952 63.5328 112.943 63.6796 113.963 63.893L111.587 62.4675ZM170.268 62.7051L170.981 64.8433L171.219 65.0809L176.208 66.0312C176.051 63.1765 172.754 61.991 170.268 62.7051Z" fill="#F4E6D6"/>
<path d="M117.051 63.8929V64.3681L127.742 66.0311C127.097 64.833 125.894 64.8489 124.653 64.6701C122.125 64.3056 119.602 64.0025 117.051 63.8929Z" fill="#F4E6D6"/>
<path d="M46.4907 67.6941C47.1601 68.9739 49.7996 70.1366 50.767 68.6444L46.4907 67.6941ZM-39.0366 67.9317V68.6444H-38.799L-39.0366 67.9317Z" fill="#181D2B"/>
<path d="M-16.7041 72.9208L-16.2289 75.5341L-12.6653 77.9099V76.0093L-16.2289 72.9208H-16.7041ZM80.9395 73.3959C78.2262 78.1636 80.1622 85.4011 86.4038 86.1811C88.8824 86.4906 90.55 85.5767 92.5808 84.3244L92.8183 84.0868L93.5311 82.6614L92.1056 81.9487C88.5177 86.0212 82.3978 84.873 81.0652 79.0977C80.6126 77.1361 81.8012 75.9159 82.1274 74.1087L81.4147 73.3959H80.9395Z" fill="#F4E6D6"/>
<path d="M109.449 76.4844C110.839 79.207 113.589 81.6134 116.339 82.8989L111.825 79.0977L111.587 78.385L109.449 76.4844ZM-17.6542 76.722C-18.3896 79.403 -15.3214 81.3594 -13.1403 82.1862V80.2856L-16.9415 76.722H-17.6542ZM106.123 77.1971C109.334 81.5597 115.927 84.5033 120.852 86.4177C122.916 87.2195 124.773 88.1068 127.029 88.1256V87.888L117.764 83.7003L111.587 80.8907L106.123 77.1971Z" fill="#F4E6D6"/>
<path d="M84.7406 77.91L85.9284 80.2858H87.1163L87.3539 79.0979L86.166 77.91H84.7406ZM41.9769 78.1476C36.1969 84.0495 30.7149 89.5491 29.1478 97.8664C30.5279 96.8299 30.4626 94.1189 31.3746 92.6397C33.6627 88.9302 36.8363 85.8574 39.5002 82.424C40.3222 81.3644 42.0962 79.5353 41.9769 78.1476ZM120.614 78.1476C125.733 84.4757 133.999 86.7714 141.521 84.3246V84.087C138.744 84.4609 136.038 85.1414 133.206 84.6954C128.234 83.9129 124.813 80.4875 120.614 78.1476ZM114.913 79.0979C117.073 82.1634 122.296 84.9568 126.079 85.0373V84.7997C122.179 83.8737 118.288 81.1788 114.913 79.0979Z" fill="#F4E6D6"/>
<path d="M-18.13 81.2361L-17.8924 83.8494L-17.6549 84.087L-13.6161 86.2252L-13.3785 84.7997L-13.8536 84.087L-14.0912 83.8494L-17.6549 81.2361H-18.13ZM42.4518 81.4737L42.2142 82.1864L41.2639 83.1367L40.3136 84.087C38.7269 84.827 37.6647 86.3639 36.5243 87.6506C32.7323 91.9298 30.3262 97.592 30.3355 103.331C30.3402 106.292 31.7398 110.54 34.6118 111.883C30.2392 104.62 32.3439 96.8467 36.6775 90.0264C38.0113 87.9276 39.4971 85.9971 41.085 84.087C41.707 83.3389 42.6692 82.4976 42.4518 81.4737Z" fill="#F4E6D6"/>
<path d="M76.6627 82.424C79.072 88.2089 86.8709 92.6559 92.8179 94.0652L82.3645 87.2353L76.6627 82.424Z" fill="#F4E6D6"/>
<path d="M-18.8426 85.75L-17.8923 88.6009L-17.6547 88.8385L-13.8535 90.5015V88.6009C-15.2756 87.3888 -16.9691 86.0843 -18.8426 85.75ZM175.019 85.75V88.3633L180.246 90.9767C180.219 88.0271 177.471 86.7763 175.019 85.75ZM43.8774 86.7003C37.5985 93.0314 33.9294 101.843 37.4629 110.458H37.7004C36.4273 103.893 37.7948 98.8779 40.5191 92.8773C41.3874 90.9648 43.6714 88.7572 43.8774 86.7003ZM94.7186 87.1754C96.9625 93.7672 102.561 99.9214 108.498 103.461C115.64 107.718 128.189 110.401 128.451 120.911C128.508 123.201 128.123 124.918 127.504 127.088C131.612 123.567 129.404 115.847 126.534 112.358C123.799 109.035 119.8 106.581 115.863 104.881C113.598 103.903 111.305 103.537 109.211 102.094C104.91 99.1307 101.5 95.6386 98.1126 91.6894C96.8989 90.2746 96.0752 88.4277 94.7186 87.1754ZM115.388 87.8882V88.1257C120.538 91.1206 126.723 92.322 132.256 94.4037C136.542 96.0166 140.41 98.6701 144.61 100.48L135.582 95.253L146.985 100.48C142.732 94.493 133.259 93.1626 126.791 91.055C123.12 89.8589 119.258 88.1939 115.388 87.8882Z" fill="#F4E6D6"/>
<path d="M44.1152 89.3136C40.1351 94.8546 36.9297 101.643 39.1261 108.557H39.3637C39.3637 104 39.9356 100.03 41.5145 95.7281C42.1552 93.9827 44.4165 91.1223 44.1152 89.3136Z" fill="#F4E6D6"/>
<path d="M98.9952 89.5513C102.033 95.0283 108.047 102.05 114.438 103.568C112.453 100.774 107.561 96.9351 104.459 95.4907L104.222 94.7779L98.9952 89.5513Z" fill="#F4E6D6"/>
<path d="M39.3633 89.7888C35.0976 94.1474 33.03 100.954 34.1366 106.894H34.3742C34.3742 103.034 34.8444 99.5489 36.3763 95.9658C37.1747 94.0989 39.1338 91.7393 39.3633 89.7888ZM76.4251 89.7888L70.9609 93.59L70.7233 92.8773L71.9112 91.4518L70.7233 92.1646H70.4857L69.0603 90.5015H68.8227C70.4315 99.8506 74.5625 108.089 68.4138 116.872C67.2409 118.548 65.719 120.285 63.8336 121.149L67.6348 114.497C61.3124 116.497 59.164 123.492 54.3306 127.495C48.8556 132.03 41.7521 132.824 36.75 138.254V138.967L42.6894 146.332C46.9655 137.308 54.8775 130.889 65.259 130.889V131.127C58.419 133.933 48.3384 137.08 46.0154 145.144C48.2025 144.224 50.1858 142.842 52.43 141.964C56.8116 140.25 62.2228 139.353 66.9221 139.446C72.1599 139.549 77.0122 141.4 82.1269 141.818L87.116 138.729H87.3536H91.1548C92.499 136.365 92.5803 133.319 92.5803 130.652C94.5669 132.641 94.1062 136.403 94.7184 138.967C97.1023 139.535 101.362 139.549 103.509 138.254C100.398 135.936 98.4289 134.042 97.3318 130.177C99.9484 133.247 103.009 137.976 107.548 138.017C105.725 134.109 101.143 132.392 100.183 127.801L101.133 128.039L101.371 128.276C102.443 131.043 105.413 132.067 107.526 133.863C108.798 134.945 109.58 136.507 110.636 137.779H112.537L112.774 137.542C112.605 134.278 108.474 130.284 105.647 128.989V128.514L103.746 126.375L114.675 135.641V137.542L115.388 137.304L118.476 132.077L115.388 134.215L118.238 130.889L118.951 131.365C120.03 129.726 121.233 128.421 121.327 126.375H121.089C119.358 129.137 115.185 131.953 114.675 135.166H114.437L113.725 133.74C110.852 131.778 108.521 129.116 105.885 126.85C104.576 125.726 103.274 124.656 103.271 122.812L109.445 127.24L112.061 129.702C112.91 126.748 109.51 125.001 109.448 122.099H109.686L113.011 127.326L113.249 131.602L113.487 131.84H114.437C115.902 129.598 118.223 125.299 117.602 122.574C117.064 120.216 113.938 116.111 111.133 117.999C109.154 119.331 108.737 122.307 108.735 124.475L107.785 124C107.845 121.126 109.434 119.616 110.398 117.11C116.672 116.317 118.657 121.307 118.238 126.613C122.274 124.097 117.453 117.307 114.675 115.922V115.685C120.695 118.057 123.223 125.817 121.582 131.84C121.083 133.669 119.442 134.827 118.951 136.591L122.99 135.166C123.002 130.644 123.709 126.336 122.477 121.862C120.494 114.66 113.219 109.863 105.885 110.763C102.022 111.238 98.6071 113.054 94.956 114.259C93.3436 114.791 91.1705 115.633 89.4918 115.209H89.2542L85.453 116.16V115.922L90.2045 113.071V112.834L81.8894 116.635L82.1269 115.922C84.774 114.802 89.0836 111.726 90.9172 109.508L79.9887 115.685L89.4918 107.369L79.276 113.309L88.5415 104.994C84.884 106.069 81.5468 109.185 78.3257 111.171L87.8288 102.38L78.0881 108.32L86.8784 100.005L77.3754 106.182L85.2154 98.5791L76.6627 103.806L84.2651 96.2034L75.7124 101.43C77.9489 99.175 82.1965 96.3723 83.5524 93.59L74.9997 99.0543L81.8894 91.927L73.5742 96.9161L79.9887 90.264L72.3863 95.0155L76.9003 89.7888H76.4251ZM-18.8428 90.5015V92.1646C-17.5526 93.3957 -15.8536 94.8352 -14.0913 95.2531V92.8773L-18.8428 90.5015ZM102.796 90.7391C105.431 95.2975 110.648 100.041 115.15 102.742C117.157 103.946 119.506 104.538 121.564 105.657C124.931 107.488 127.73 110.161 129.88 113.309H130.117C127.617 106.711 120.164 104.831 114.912 101.215C110.514 98.1874 107.127 93.7901 102.796 90.7391ZM175.257 90.9767V93.1149L180.246 95.9658C180.244 93.0895 178.149 91.273 175.257 90.9767ZM47.6784 91.927C44.4073 95.775 43.1645 101.011 43.1645 105.944H43.4021L45.4034 97.6288L47.6784 91.927ZM44.8275 92.1646C41.8828 97.7552 40.4633 102.222 41.2639 108.557H41.5015C41.5015 105.04 41.6934 101.704 42.8542 98.3415C43.4004 96.7598 45.2651 93.7599 44.8275 92.1646ZM27.9597 92.8773C20.815 97.7374 8.22138 103.307 8.00329 113.546H8.24086C9.82098 102.846 22.9938 100.601 28.4348 92.8773H27.9597ZM108.973 92.8773C112.201 97.3651 118.858 99.1398 123.465 101.829C128.763 104.921 133.653 112.607 133.918 118.773H134.156C134.156 107.071 124.148 101.155 114.912 96.3796C112.879 95.3279 111.089 93.7554 108.973 92.8773Z" fill="#F4E6D6"/>
<path d="M-19.0798 94.7778V95.9657C-17.7095 97.2441 -15.9612 97.9407 -14.0907 98.1039L-13.8532 97.8663L-14.0907 96.2033L-19.0798 94.7778ZM48.3917 94.7778C46.7075 97.5294 44.8192 101.426 45.5408 104.756H45.7783L47.4421 97.8663L48.3917 94.7778ZM50.2923 95.4906C48.9013 98.1343 47.9163 100.559 47.6789 103.568H47.9165L50.2923 95.4906Z" fill="#F4E6D6"/>
<path d="M153.875 95.7281V95.9657H155.063V95.7281H153.875Z" fill="#181D2B"/>
<path d="M60.5078 96.4409C60.122 105.403 52.3615 114.406 44.5902 118.087C40.9477 119.812 34.2839 120.785 31.7611 124C34.1794 123.888 36.8222 122.475 39.126 121.708C47.3575 118.968 54.1904 115.61 58.3107 107.369C59.682 104.627 61.7897 99.4959 60.5078 96.4409ZM110.636 96.6785L114.2 99.5933L123.703 104.043L119.902 101.463L110.636 96.6785ZM119.189 96.9161V97.1536C125.987 100.938 133.436 106.188 135.107 114.259H135.344C135.276 106.081 126.454 99.0082 119.189 96.9161Z" fill="#F4E6D6"/>
<path d="M-18.6047 99.0542L-18.3672 100.955L-18.1296 101.192L-13.3781 102.618C-13.5054 99.8764 -16.1767 99.111 -18.6047 99.0542ZM54.5686 100.005C51.0518 108.452 43.6546 112.574 36.0377 116.635V116.872C42.2002 116.042 48.3508 111.33 51.8538 106.419C52.9517 104.88 54.986 101.992 54.5686 100.005ZM174.544 100.242L174.782 102.38L179.296 105.944L179.771 103.806C178.329 102.375 176.66 100.472 174.544 100.242Z" fill="#F4E6D6"/>
<path d="M62.4083 104.281C60.5913 109.617 56.8015 113.342 53.3804 117.585C56.9668 115.879 59.3321 111.739 61.0415 108.32C61.6205 107.161 62.6872 105.609 62.4083 104.281Z" fill="#F4E6D6"/>
<path d="M-17.6544 107.132L-17.4168 109.27L-17.1793 109.508L-11.9526 111.646C-12.0973 108.53 -15.2086 108.081 -17.6544 107.132ZM139.858 108.32C140.998 113.844 141.685 118.532 139.693 124C138.873 126.251 137.348 128.186 136.532 130.414H136.77C137.908 128.748 139.325 127.238 140.245 125.425C142.502 120.975 143.201 112.458 139.858 108.32ZM173.832 109.508L173.594 111.646L177.633 114.734L178.108 112.359L174.544 109.508H173.832ZM143.184 110.696C143.71 117.352 142.904 122.101 140.333 128.276C141.632 127.51 142.387 125.836 142.943 124.475C144.445 120.801 145.122 114.338 143.184 110.696Z" fill="#F4E6D6"/>
<path d="M-16.9417 111.646L-16.7041 113.784L-16.4665 114.021C-14.8163 114.856 -12.8349 115.512 -11.0023 114.972C-11.4453 112.8 -15.0394 112.197 -16.9417 111.646ZM145.798 112.358C145.798 116.298 145.89 120.197 144.67 124C143.911 126.366 142.495 128.393 141.521 130.652H141.759C145.193 125.871 148.313 118.339 145.798 112.358Z" fill="#F4E6D6"/>
<path d="M172.643 114.022C172.694 116.146 174.113 117.148 175.257 118.773L175.494 119.011L176.445 119.486L177.157 117.11C175.839 115.792 174.596 114.234 172.643 114.022ZM43.8772 115.447C39.5519 117.909 34.8137 117.845 30.3354 119.596C22.7092 122.577 16.1042 130.274 16.0809 138.729H16.3185L18.9472 131.84L22.9706 126.138L27.4845 122.66L34.6118 119.486L34.1366 120.436L44.3524 115.685L43.8772 115.447ZM148.173 115.685C148.173 121.099 146.47 125.07 144.372 129.939C147.417 127.348 150.19 119.48 148.173 115.685ZM-15.7543 116.16V117.585C-14.178 118.986 -12.3194 119.01 -10.29 119.011L-10.0525 118.773L-10.5276 117.11L-15.7543 116.16Z" fill="#F4E6D6"/>
<path d="M163.853 118.06V118.298H165.041V118.06H163.853ZM113.25 118.535C114.237 120.121 115.074 121.104 114.913 123.049H113.963L112.062 121.149C110.947 123.507 113.009 126.182 115.388 126.613C116.962 123.609 117.138 119.857 113.25 118.535Z" fill="#181D2B"/>
<path d="M-15.041 120.436C-14.3798 122.962 -11.1039 123.299 -8.86405 122.812C-9.51572 120.338 -12.8831 120.454 -15.041 120.436ZM18.4572 138.254H18.6947C21.0356 131.072 25.9805 126.672 32.2366 122.812L32.7117 121.624C25.3744 122.359 19.0231 131.327 18.4572 138.254ZM170.506 121.861L170.031 122.337V123.287L174.307 127.088L174.544 124.95C173.348 123.65 172.386 122.071 170.506 121.861ZM39.6014 122.812L31.7614 125.44L26.2972 128.751C23.4128 132.862 21.0705 136.357 21.0705 141.58H21.3081C22.8502 135.623 25.6186 130.891 31.0487 127.612C33.7511 125.98 38.0094 125.223 40.0766 122.812H39.6014ZM48.6293 123.762C40.7 127.515 28.0317 131.207 26.5347 141.343H26.7723C29.5631 131.139 41.0404 128.705 49.1044 124L48.6293 123.762Z" fill="#F4E6D6"/>
<path d="M-13.6161 124.237V125.425C-11.7397 126.962 -9.74503 126.851 -7.43912 126.851L-7.91427 125.188L-8.15185 124.95L-13.6161 124.237ZM169.317 125.188C168.793 127.478 171.142 129.639 172.881 130.889L173.356 130.177C173.151 127.842 171.343 126.734 169.792 125.188H169.317Z" fill="#F4E6D6"/>
<path d="M-11.9531 128.513V129.701C-10.2742 131.194 -8.09537 131.53 -6.01373 130.652L-6.48888 129.226L-11.9531 128.513ZM167.892 128.751L167.417 129.939V130.176L170.98 134.69L171.693 133.503V132.79L168.604 128.751H167.892Z" fill="#F4E6D6"/>
<path d="M-10.2896 133.028C-9.73695 135.741 -6.16191 135.302 -4.11258 134.691L-4.58773 133.265L-4.82531 133.028H-10.2896ZM166.467 132.79L165.992 133.265V134.453L169.555 138.254C170.665 135.934 168.459 134.307 166.942 132.79H166.467Z" fill="#F4E6D6"/>
<path d="M32.2363 137.304L31.7611 137.779C31.8119 139.884 33.2272 141.011 34.5077 142.531C36.1104 144.433 37.5539 146.442 38.9891 148.47C39.8116 149.632 40.5481 151.139 41.9769 151.558C41.8866 147.717 37.7958 143.715 35.5148 140.868C34.5099 139.613 33.5472 138.247 32.2363 137.304Z" fill="#FEA031"/>
<path d="M3.2522 155.36C4.06423 158.097 8.86231 156.985 10.8546 156.31V155.598L10.617 155.36C8.3615 154.645 5.54765 154.814 3.2522 155.36Z" fill="#F4E6D6"/>
</g>
<path d="M42.2614 159.048C42.2614 170.507 52.0471 179.797 64.1184 179.797C76.1896 179.797 83.4412 172.669 85.9753 159.048C85.8994 160.791 81.2238 177.579 64.1184 177.579C52.0471 177.579 45.6403 170.135 42.2614 159.048Z" fill="#FEA031"/>
<ellipse cx="0.791919" cy="13.6108" rx="0.791919" ry="13.6108" transform="matrix(-0.995375 -0.0960659 -0.0960659 0.995375 93.5778 155.874)" fill="#FEA031"/>
<path d="M92.5148 171.307C92.0236 176.397 90.8576 180.888 91.4664 180.947C92.0751 181.005 93.6089 171.307 95.7514 166.092C95.1801 164.092 95.1151 162.257 94.5064 162.199C93.466 164.521 93.006 166.218 92.5148 171.307Z" fill="#FEA031"/>
<path d="M126.047 145.902C115.593 148.595 82.6716 149.971 82.6926 150.408C82.7135 150.844 92.6754 150.722 104.943 150.133C117.211 149.545 127.668 149.546 128.106 146.219C126.839 145.902 126.047 145.902 126.047 145.902Z" fill="#FEA031"/>
</svg>
