<svg width="24" height="22" viewBox="0 0 24 22" fill="none" xmlns="http://www.w3.org/2000/svg">
<path fill-rule="evenodd" clip-rule="evenodd" d="M21.2981 1.09646C22.5707 0.560609 23.935 1.63675 23.7103 2.99921L21.0562 19.0919C20.8002 20.6435 19.096 21.5338 17.6725 20.7606C16.4813 20.1136 14.7139 19.1177 13.1211 18.077C12.3258 17.5572 9.89036 15.8907 10.1897 14.7044C10.4457 13.6901 14.5399 9.87896 16.8795 7.61247C17.7985 6.72216 17.3799 6.20783 16.2946 7.02756C13.6022 9.06104 9.27951 12.1527 7.85006 13.0228C6.58886 13.7904 5.93035 13.9215 5.14489 13.7904C3.71055 13.5515 2.38075 13.1813 1.29508 12.7313C-0.172289 12.123 -0.100814 10.1065 1.29409 9.51925L21.2981 1.09646Z" fill="white"/>
</svg>
