<svg width="25" height="25" viewBox="0 0 25 25" fill="none" xmlns="http://www.w3.org/2000/svg">
<mask id="mask0_186_1985" style="mask-type:alpha" maskUnits="userSpaceOnUse" x="0" y="0" width="25" height="25">
<rect width="24" height="24" transform="matrix(-1 0 0 1 24.6665 0.213257)" fill="#D9D9D9"/>
</mask>
<g mask="url(#mask0_186_1985)">
<path d="M12.6665 13.2133C13.7665 13.2133 14.7082 12.8216 15.4915 12.0383C16.2748 11.2549 16.6665 10.3133 16.6665 9.21326V5.71326C16.6665 5.29659 16.5207 4.94242 16.229 4.65076C15.9373 4.35909 15.5832 4.21326 15.1665 4.21326C14.9165 4.21326 14.679 4.27159 14.454 4.38826C14.229 4.50492 14.0498 4.67159 13.9165 4.88826C13.7832 4.67159 13.604 4.50492 13.379 4.38826C13.154 4.27159 12.9165 4.21326 12.6665 4.21326C12.4165 4.21326 12.179 4.27159 11.954 4.38826C11.729 4.50492 11.5498 4.67159 11.4165 4.88826C11.2832 4.67159 11.104 4.50492 10.879 4.38826C10.654 4.27159 10.4165 4.21326 10.1665 4.21326C9.74984 4.21326 9.39567 4.35909 9.104 4.65076C8.81234 4.94242 8.6665 5.29659 8.6665 5.71326V9.21326C8.6665 10.3133 9.05817 11.2549 9.8415 12.0383C10.6248 12.8216 11.5665 13.2133 12.6665 13.2133ZM20.6665 21.2133V18.4133C20.6665 17.8466 20.5207 17.3258 20.229 16.8508C19.9373 16.3758 19.5498 16.0133 19.0665 15.7633C18.0332 15.2466 16.9832 14.8591 15.9165 14.6008C14.8498 14.3424 13.7665 14.2133 12.6665 14.2133C11.5665 14.2133 10.4832 14.3424 9.4165 14.6008C8.34984 14.8591 7.29984 15.2466 6.2665 15.7633C5.78317 16.0133 5.39567 16.3758 5.104 16.8508C4.81234 17.3258 4.6665 17.8466 4.6665 18.4133V21.2133H20.6665Z" fill="white"/>
</g>
</svg>
