<?xml version="1.0" encoding="utf-8"?>
<!-- Generator: Adobe Illustrator 23.0.6, SVG Export Plug-In . SVG Version: 6.00 Build 0)  -->
<svg version="1.1" id="Layer_1" xmlns="http://www.w3.org/2000/svg" xmlns:xlink="http://www.w3.org/1999/xlink" x="0px" y="0px"
	 viewBox="0 0 27 51" style="enable-background:new 0 0 27 51;" xml:space="preserve">
<style type="text/css">
	.st0{fill:#FEA031;}
	.st1{fill:#FF5A00;}
	.st2{fill:#DDDDDD;}
</style>
<path class="st0" d="M8.5,47l-4.8,3L5,44.5l-4.3-3.7l5.6-0.5l2.2-5.2l2.2,5.2l5.6,0.5L12,44.5l1.3,5.5L8.5,47z"/>
<path class="st1" d="M8.5,30l-4.8,3L5,27.4l-4.3-3.7l5.6-0.5l2.2-5.2l2.2,5.2l5.6,0.5L12,27.4l1.3,5.5L8.5,30z"/>
<path class="st2" d="M8.5,13l-4.8,3L5,10.4L0.7,6.7l5.6-0.5l2.2-5.2l2.2,5.2l5.6,0.5L12,10.4l1.3,5.5L8.5,13z"/>
</svg>
