<svg xmlns="http://www.w3.org/2000/svg" width="15.969" height="16.031" viewBox="0 0 15.969 16.031">
  <metadata><?xpacket begin="﻿" id="W5M0MpCehiHzreSzNTczkc9d"?>
<x:xmpmeta xmlns:x="adobe:ns:meta/" x:xmptk="Adobe XMP Core 5.6-c138 79.159824, 2016/09/14-01:09:01        ">
   <rdf:RDF xmlns:rdf="http://www.w3.org/1999/02/22-rdf-syntax-ns#">
      <rdf:Description rdf:about=""/>
   </rdf:RDF>
</x:xmpmeta>
                                                                                                    
                                                                                                    
                                                                                                    
                                                                                                    
                                                                                                    
                                                                                                    
                                                                                                    
                                                                                                    
                                                                                                    
                                                                                                    
                                                                                                    
                                                                                                    
                                                                                                    
                                                                                                    
                                                                                                    
                                                                                                    
                                                                                                    
                                                                                                    
                                                                                                    
                                                                                                    
                           
<?xpacket end="w"?></metadata>
<defs>
    <style>
      .cls-1 {
        fill: #aaadb2;
        fill-rule: evenodd;
      }
    </style>
  </defs>
  <path class="cls-1" d="M616.593,210.942h6.714v1.52h-6.714v-1.52Zm0,2.355h6.714v1.52h-6.714V213.3Zm0,2.356h3.568v1.519h-3.568v-1.519Zm-2.984,2.963-1.013,2.349a0.756,0.756,0,0,0,.406,1,0.784,0.784,0,0,0,.436.05l3.96-.684a8.012,8.012,0,0,0,10.143-4.9,7.853,7.853,0,0,0-4.965-10,8.013,8.013,0,0,0-10.143,4.9A7.791,7.791,0,0,0,613.609,218.616Zm6.342-11.005a6.308,6.308,0,1,1,.015,12.615,6.473,6.473,0,0,1-2.235-.4,0.789,0.789,0,0,0-.4-0.036l-2.771.479,0.638-1.48a0.751,0.751,0,0,0-.124-0.79,6.244,6.244,0,0,1,.712-8.885A6.434,6.434,0,0,1,619.951,207.611Z" transform="translate(-612 -206)"/>
</svg>
